<svg xmlns="http://www.w3.org/2000/svg" viewBox="0 0 750 500"><g id="freepik--background-complete--inject-2"><path d="M262,61.15c.68-5-6.35-9.08-11.63-9.51-2.52-.2-5.14.19-7.52-.65-5.17-1.8-7.24-8.48-12.28-10.61-3.78-1.59-8.12-.17-11.78,1.67s-7.27,4.16-11.35,4.42c-3.56.22-7.42-1.09-10.53.64-2.31,1.3-3.53,4-5.66,5.54s-4.82,1.87-7.41,2-5.27.17-7.63,1.25-4.32,3.57-3.83,6.12Z" style="fill:#ebebeb"></path><path d="M338.51,50.25c.47-3.44-4.39-6.27-8-6.57-1.74-.14-3.55.13-5.2-.45-3.58-1.24-5-5.86-8.49-7.33-2.61-1.1-5.61-.12-8.14,1.15s-5,2.87-7.85,3.05c-2.46.16-5.12-.75-7.27.45-1.6.89-2.44,2.74-3.92,3.83a9.4,9.4,0,0,1-5.12,1.39,14.21,14.21,0,0,0-5.28.86c-1.63.75-3,2.47-2.64,4.23Z" style="fill:#ebebeb"></path><path d="M649.63,103.84c.81-.49,7.15,0,7.15,0v46s-7.15.9-7.15,0v-45.4" style="fill:#e0e0e0"></path><path d="M649.63,103.84s-16.81,1.55-16.81,17v30H650.7Z" style="fill:#f5f5f5"></path><g style="opacity:0.45"><path d="M457.78,77.21c-.64-1.55-2.5-2.37-4.28-2.73a25.05,25.05,0,0,1-5.28-1.13c-3.29-1.44-4.6-5-5.59-8.18-1.37-4.44-2.76-8.93-2.89-13.54s1.15-9.42,4.52-12.86,9.1-5.17,13.75-3.33c4.33,1.71,7.68,6.2,12.37,5.69C473,40.85,475,39,477,37.44A32.19,32.19,0,0,1,488,31.15a17.72,17.72,0,0,1,12.75.72c2,1,3.65,2.44,5.79,3,3.05.81,6.25-.34,9.22-1.35,7.45-2.54,16.41-4.16,22.91,0a16.14,16.14,0,0,1,6.75,10c2,8.68-2.39,18.3-10.58,23.11A27,27,0,0,1,507.35,66c-1.66-1.11-3.41-2.48-5.46-2.32s-3.46,1.72-5,3a18.53,18.53,0,0,1-16.38,3.24c-6.69-1.93-11.62-7.47-18.4-9.1a10.68,10.68,0,0,0-7.64.68c-2.22,1.28-3.51,4-2.37,6.2,1,1.83,3.21,2.72,4.78,4.15s2.09,4.35,0,5.1" style="fill:#f5f5f5"></path></g><polygon points="441.55 126.13 437.03 135.99 437.03 195.55 639.36 195.55 639.36 154.88 557.16 154.88 557.16 122.02 441.55 126.13" style="fill:#ebebeb"></polygon><polygon points="441.55 126.13 437.03 135.99 437.03 195.55 459.51 195.55 459.51 126.13 441.55 126.13" style="fill:#ebebeb"></polygon><path d="M435.28,246.51l.55.09A.93.93,0,0,0,435.28,246.51Z" style="fill:#e0e0e0"></path><path d="M417.78,201.52l-.23.3A1.09,1.09,0,0,0,417.78,201.52Z" style="fill:#e0e0e0"></path><path d="M441.66,179.57a.9.9,0,0,0,.49-.26Z" style="fill:#e0e0e0"></path><path d="M467.41,245l.35-.13A1.33,1.33,0,0,0,467.41,245Z" style="fill:#e0e0e0"></path><path d="M483,225.66a.94.94,0,0,0-.11.55Z" style="fill:#e0e0e0"></path><path d="M484.83,216.86l.08-.37A1.53,1.53,0,0,0,484.83,216.86Z" style="fill:#e0e0e0"></path><path d="M488,220.84a8.72,8.72,0,0,0-2.08-1.88,2.72,2.72,0,0,1-1.1-2.1l-.3,1.45a35.85,35.85,0,0,0,.26-4.3c0-.66,0-1.31-.05-2a2.18,2.18,0,0,1,.42-.33c.62-.34,1.34-.44,1.94-.81a2.65,2.65,0,0,0,.24-4.29,8.69,8.69,0,0,0-2.58-1,3.28,3.28,0,0,1-1.09-.62,35.88,35.88,0,0,0-1.92-5.57L483,202a1.82,1.82,0,0,1,.46-1.44c.47-.53,1.12-.87,1.57-1.42a2.69,2.69,0,0,0,.5-2.37,2.61,2.61,0,0,0-1.63-1.76,8.21,8.21,0,0,0-2.76-.09A2.54,2.54,0,0,1,479,194l1,2.06a35.54,35.54,0,0,0-5.32-7.12l1.7,1.37a1.8,1.8,0,0,1-.18-1.51c.22-.68.67-1.27.86-2a2.74,2.74,0,0,0-.51-2.38,2.53,2.53,0,0,0-2.19-.9,8.56,8.56,0,0,0-2.55,1.11,3.17,3.17,0,0,1-1.7.31,34.56,34.56,0,0,0-3.49-2.25,2,2,0,0,1-.19-.83c0-.72.25-1.42.21-2.14a2.65,2.65,0,0,0-1.2-2.09,2.48,2.48,0,0,0-2.35-.15,8.78,8.78,0,0,0-2.09,1.87,3.42,3.42,0,0,1-.82.59,34,34,0,0,0-7.65-1.41,7.14,7.14,0,0,0-.33-1.4,2.6,2.6,0,0,0-1.83-1.54,2.51,2.51,0,0,0-2.26.69,7.87,7.87,0,0,0-1.26,2.34,32.53,32.53,0,0,0-5.33,1l.08,0a1.7,1.7,0,0,1-1.39-.48c-.51-.49-.84-1.16-1.37-1.62a2.47,2.47,0,0,0-2.3-.52,2.57,2.57,0,0,0-1.71,1.67,9,9,0,0,0-.1,2.85,4.09,4.09,0,0,1-.09.85,33.88,33.88,0,0,0-4.84,3.08,1.74,1.74,0,0,1-.39-.11c-.64-.28-1.16-.8-1.81-1a2.48,2.48,0,0,0-2.34.3,2.67,2.67,0,0,0-1.08,2.16,9.22,9.22,0,0,0,.84,2.72c0,.1.06.2.08.3a35.77,35.77,0,0,0-3.66,4.8,16,16,0,0,0-1.68-.79,2.5,2.5,0,0,0-2.31.52,2.7,2.7,0,0,0-.88,2.25,9.22,9.22,0,0,0,1.07,2.64,2.73,2.73,0,0,1,.08,2.38l.53-.69A34.77,34.77,0,0,0,417,205l-.06,0c-.69.1-1.4-.06-2.09.08A2.57,2.57,0,0,0,413,206.6a2.77,2.77,0,0,0,.18,2.43,8.7,8.7,0,0,0,2.09,1.87,3.88,3.88,0,0,1,.69.76c-.05.78-.09,1.56-.09,2.35a36.26,36.26,0,0,0,.25,4.19l-.15.11c-.59.39-1.3.54-1.87.95a2.66,2.66,0,0,0,.05,4.3,8.27,8.27,0,0,0,2.65.82,4.16,4.16,0,0,1,.64.24,35.22,35.22,0,0,0,2,5.1,2.28,2.28,0,0,1-.17.58c-.31.64-.85,1.15-1.13,1.81a2.71,2.71,0,0,0,.16,2.42,2.52,2.52,0,0,0,2,1.23,6.3,6.3,0,0,0,2.34-.58,35.43,35.43,0,0,0,3.81,4.46,1.72,1.72,0,0,1-.05.72c-.19.7-.63,1.3-.79,2a2.68,2.68,0,0,0,.57,2.36,2.52,2.52,0,0,0,2.21.84,8.64,8.64,0,0,0,2.52-1.18,3.59,3.59,0,0,1,1-.33,34.19,34.19,0,0,0,5.05,2.74l-1.09-.18a1.82,1.82,0,0,1,.85,1.23c.13.71,0,1.45.18,2.15a2.63,2.63,0,0,0,1.56,1.82,2.54,2.54,0,0,0,2.34-.31,8.92,8.92,0,0,0,1.71-2.25,3.42,3.42,0,0,1,.43-.51,33.12,33.12,0,0,0,5.11.75,1.87,1.87,0,0,1,.48.7c.27.67.29,1.42.58,2.07a2.58,2.58,0,0,0,1.87,1.48,2.52,2.52,0,0,0,2.24-.77,9.14,9.14,0,0,0,1.26-2.54,3.4,3.4,0,0,1,.92-1.23,33.09,33.09,0,0,0,4.58-1,1.91,1.91,0,0,1,.55.47c.45.55.68,1.26,1.15,1.8a2.52,2.52,0,0,0,2.21.83,2.58,2.58,0,0,0,1.92-1.41,9.4,9.4,0,0,0,.47-2.81,2.68,2.68,0,0,1,1.17-2.06l-.34.12c.82-.48,1.63-1,2.42-1.53a2,2,0,0,1,.76.28c.59.4,1,1,1.62,1.37a2.51,2.51,0,0,0,2.35.13,2.65,2.65,0,0,0,1.42-1.94,9.2,9.2,0,0,0-.35-2.83,2.43,2.43,0,0,1,.82-2.55l-1.24.95a35.53,35.53,0,0,0,3.09-3.71,1.79,1.79,0,0,1,1.18-.19c.69.12,1.31.5,2,.59a2.5,2.5,0,0,0,2.2-.85,2.72,2.72,0,0,0,.56-2.36,8.75,8.75,0,0,0-1.42-2.45,3.14,3.14,0,0,1-.52-1.88,35.42,35.42,0,0,0,1.27-3.54l-.22,1.08a1.71,1.71,0,0,1,1.24-.81c.69-.11,1.4.06,2.09-.08a2.57,2.57,0,0,0,1.84-1.51A2.69,2.69,0,0,0,488,220.84Z" style="fill:#e0e0e0"></path><path d="M483,202a1,1,0,0,0,.26.5Z" style="fill:#e0e0e0"></path><path d="M479,194l-.17-.33A1.29,1.29,0,0,0,479,194Z" style="fill:#e0e0e0"></path><path d="M476.86,190.62l-.42-.34A.83.83,0,0,0,476.86,190.62Z" style="fill:#e0e0e0"></path><polygon points="457.24 111.43 457.24 125.57 467.36 125.21 467.36 111.43 457.24 111.43" style="fill:#ebebeb"></polygon><path d="M453.94,75.39c.62-.19,5.36,2.63,5.36,10.32v25.72h5.78v-25s-.21-12.2-9.49-16.14Z" style="fill:#e0e0e0"></path><polygon points="437.03 140.34 450.81 140.34 451.82 142.65 451.82 161.75 450.13 163.6 437.03 163.6 437.03 140.34" style="fill:#e0e0e0"></polygon><rect x="434.89" y="156.58" width="16.94" height="3.23" style="fill:#ebebeb"></rect><rect x="434.89" y="149.38" width="16.94" height="3.23" style="fill:#ebebeb"></rect><rect x="434.89" y="142.72" width="16.94" height="3.23" style="fill:#ebebeb"></rect><polygon points="557.16 122.1 557.16 118.5 568.86 118.5 568.86 154.88 557.16 154.88 557.16 122.1" style="fill:#e0e0e0"></polygon><polyline points="563.01 154.88 563.01 199.71 557.16 199.71 557.16 156.06 557.16 154.88" style="fill:#e0e0e0"></polyline><polyline points="587.42 154.88 587.42 156.06 587.42 199.71 593.27 199.71 593.27 154.88" style="fill:#e0e0e0"></polyline><rect x="560.64" y="196.41" width="30.26" height="3.3" style="fill:#e0e0e0"></rect><rect x="560.64" y="178.81" width="30.26" height="3.3" style="fill:#e0e0e0"></rect><path d="M626.09,243.4l.8.12A1.37,1.37,0,0,0,626.09,243.4Z" style="fill:#e0e0e0"></path><path d="M600.12,179.05l-.33.43A2.24,2.24,0,0,0,600.12,179.05Z" style="fill:#e0e0e0"></path><path d="M635.55,147.65a1.5,1.5,0,0,0,.73-.37Z" style="fill:#e0e0e0"></path><path d="M673.75,241.18l.51-.18A2.21,2.21,0,0,0,673.75,241.18Z" style="fill:#e0e0e0"></path><path d="M686.22,231.57l.44-.32A2.07,2.07,0,0,0,686.22,231.57Z" style="fill:#e0e0e0"></path><path d="M696.91,213.57a1.33,1.33,0,0,0-.17.79Z" style="fill:#e0e0e0"></path><path d="M699.6,201l.11-.53A1.93,1.93,0,0,0,699.6,201Z" style="fill:#e0e0e0"></path><path d="M704.32,206.67c-.73-1.16-2-1.82-3.1-2.68a3.83,3.83,0,0,1-1.62-3l-.45,2.08a50,50,0,0,0,.39-6.15c0-.94,0-1.88-.08-2.81a2.83,2.83,0,0,1,.63-.46c.91-.49,2-.63,2.87-1.16a3.71,3.71,0,0,0,.36-6.14c-1.09-.83-2.53-1-3.83-1.46a5,5,0,0,1-1.62-.89,50.19,50.19,0,0,0-2.85-8l1.91,3.66a2.5,2.5,0,0,1,.68-2.05c.7-.76,1.66-1.25,2.33-2a3.71,3.71,0,0,0-1.67-5.91c-1.31-.44-2.73-.13-4.11-.13a3.83,3.83,0,0,1-3.17-1.31l1.53,2.95a51.2,51.2,0,0,0-7.9-10.19l2.5,2a2.59,2.59,0,0,1-.24-2.15c.32-1,1-1.82,1.27-2.81a3.72,3.72,0,0,0-4-4.68c-1.36.14-2.53,1-3.78,1.58a4.75,4.75,0,0,1-2.53.44,50.75,50.75,0,0,0-5.18-3.2,3.09,3.09,0,0,1-.28-1.19c0-1,.37-2,.32-3.07a3.8,3.8,0,0,0-1.78-3,3.84,3.84,0,0,0-3.49-.22c-1.25.57-2.09,1.75-3.1,2.68a5,5,0,0,1-1.22.85,51.11,51.11,0,0,0-11.34-2,10.55,10.55,0,0,0-.5-2,3.81,3.81,0,0,0-2.71-2.2,3.86,3.86,0,0,0-3.35,1,11.11,11.11,0,0,0-1.88,3.35,50.19,50.19,0,0,0-7.9,1.4l.12-.06a2.57,2.57,0,0,1-2.06-.69c-.76-.69-1.24-1.65-2-2.32a3.84,3.84,0,0,0-3.42-.74,3.79,3.79,0,0,0-2.54,2.39c-.44,1.3-.14,2.71-.14,4.08a5.55,5.55,0,0,1-.14,1.21A51.24,51.24,0,0,0,618,156a3.19,3.19,0,0,1-.55-.16c-1-.4-1.73-1.15-2.7-1.51a3.83,3.83,0,0,0-3.47.43,3.77,3.77,0,0,0-1.59,3.09c0,1.37.78,2.6,1.23,3.89,0,.14.09.28.13.43a51.55,51.55,0,0,0-5.44,6.86,25.33,25.33,0,0,0-2.49-1.13,3.84,3.84,0,0,0-3.41.74,3.77,3.77,0,0,0-1.31,3.23c.14,1.36,1,2.52,1.58,3.77a3.81,3.81,0,0,1,.12,3.41l.78-1a52.52,52.52,0,0,0-2,5.95l-.09,0c-1,.16-2.08-.08-3.1.12a3.71,3.71,0,0,0-2.46,5.63c.73,1.16,2,1.82,3.1,2.68a5.75,5.75,0,0,1,1,1.08c-.07,1.12-.12,2.24-.12,3.37a51.52,51.52,0,0,0,.36,6l-.21.16c-.87.55-1.93.77-2.78,1.36a3.72,3.72,0,0,0,.08,6.15c1.14.75,2.6.82,3.93,1.18a5.91,5.91,0,0,1,.94.34,49.31,49.31,0,0,0,2.95,7.3,2.84,2.84,0,0,1-.26.81c-.46.92-1.25,1.65-1.67,2.59a3.74,3.74,0,0,0,.23,3.47,3.79,3.79,0,0,0,3,1.76,9.91,9.91,0,0,0,3.47-.84,51.56,51.56,0,0,0,5.68,6.4,2.88,2.88,0,0,1-.09,1c-.29,1-.94,1.85-1.18,2.85a3.77,3.77,0,0,0,.85,3.37,3.83,3.83,0,0,0,3.28,1.2c1.36-.18,2.5-1.08,3.73-1.69a5.62,5.62,0,0,1,1.45-.48,50.79,50.79,0,0,0,7.49,3.93l-1.63-.26a2.52,2.52,0,0,1,1.26,1.76c.21,1,0,2.07.28,3.07a3.76,3.76,0,0,0,2.32,2.6,3.83,3.83,0,0,0,3.46-.44c1.13-.79,1.72-2.11,2.53-3.22a5.49,5.49,0,0,1,.65-.72,50.87,50.87,0,0,0,7.58,1.07,2.7,2.7,0,0,1,.71,1c.4,1,.43,2,.86,3a3.75,3.75,0,0,0,6.09,1c1-1,1.29-2.4,1.87-3.64a4.85,4.85,0,0,1,1.38-1.76,50.91,50.91,0,0,0,6.79-1.48,2.94,2.94,0,0,1,.82.66c.66.8,1,1.82,1.7,2.58a3.74,3.74,0,0,0,6.12-.83c.62-1.22.51-2.66.7-4a3.82,3.82,0,0,1,1.74-2.95l-.51.18c1.24-.69,2.46-1.42,3.63-2.21a3.18,3.18,0,0,1,1.1.42c.86.57,1.5,1.44,2.39,2a3.81,3.81,0,0,0,3.49.18,3.77,3.77,0,0,0,2.11-2.77c.23-1.35-.3-2.69-.53-4a3.81,3.81,0,0,1,.79-3.33l-1.41,1a50.36,50.36,0,0,0,4.59-5.31,2.78,2.78,0,0,1,1.75-.28c1,.17,2,.72,3,.85a3.8,3.8,0,0,0,3.27-1.22,3.76,3.76,0,0,0,.83-3.37c-.34-1.33-1.36-2.36-2.11-3.51a4.35,4.35,0,0,1-.77-2.69,50.84,50.84,0,0,0,1.89-5.05l-.33,1.54a2.55,2.55,0,0,1,1.83-1.16c1-.15,2.09.08,3.1-.11a3.71,3.71,0,0,0,2.48-5.63Z" style="fill:#e0e0e0"></path><path d="M696.93,179.69a1.32,1.32,0,0,0,.37.72Z" style="fill:#e0e0e0"></path><path d="M691,168.25l-.25-.48A1.57,1.57,0,0,0,691,168.25Z" style="fill:#e0e0e0"></path><path d="M687.77,163.46l-.65-.5A1.36,1.36,0,0,0,687.77,163.46Z" style="fill:#e0e0e0"></path><ellipse cx="648.79" cy="197.83" rx="25.86" ry="25.72" style="fill:#ebebeb"></ellipse><path d="M656.5,197.83a7.71,7.71,0,1,1-7.71-7.67A7.69,7.69,0,0,1,656.5,197.83Z" style="fill:#e0e0e0"></path><path d="M652,194.69a4.42,4.42,0,0,1,0,6.29,4.48,4.48,0,0,1-6.32,0,4.42,4.42,0,0,1,0-6.29A4.48,4.48,0,0,1,652,194.69Z" style="fill:#ebebeb"></path><ellipse cx="449.8" cy="214.66" rx="23.04" ry="23.77" style="fill:#ebebeb"></ellipse><path d="M456.67,214.66a6.87,6.87,0,1,1-6.87-7.09A7,7,0,0,1,456.67,214.66Z" style="fill:#e0e0e0"></path><ellipse cx="449.8" cy="214.66" rx="3.99" ry="4.11" style="fill:#ebebeb"></ellipse><rect x="457.24" y="111.43" width="3.02" height="14.01" style="fill:#e0e0e0"></rect><polygon points="567.26 128.85 581.48 117.9 575.55 104.43 578.74 102.63 592.34 132.62 589.18 133.7 583.85 122.39 568.64 132.8 567.26 128.85" style="fill:#e0e0e0"></polygon><path d="M596.34,156.33c.77.23,5.34,6,5.34,6s14.75-24.51,44.5-24.28,38.64,10.87,53.14,25.9l6.35-2.54s-15.39-32.37-59.24-31.66C611.35,130.33,596.34,156.33,596.34,156.33Z" style="fill:#ebebeb"></path><path d="M696.84,250.57c0,.15-144.87.26-323.53.26s-323.57-.11-323.57-.26,144.84-.26,323.57-.26S696.84,250.43,696.84,250.57Z" style="fill:#e0e0e0"></path><path d="M138.69,187.92c.13,0,5.05,14.39,11,32.23s10.61,32.35,10.47,32.39-5-14.38-11-32.23S138.55,188,138.69,187.92Z" style="fill:#e0e0e0"></path><path d="M157.71,192.76a2.54,2.54,0,0,1,.1.58L158,195c.13,1.46.35,3.57.64,6.18.57,5.21,1.53,12.39,3,20.25s3.15,14.91,4.49,20c.67,2.53,1.22,4.58,1.62,6l.44,1.63a2.87,2.87,0,0,1,.12.58,2.27,2.27,0,0,1-.22-.55l-.53-1.6c-.46-1.4-1.07-3.43-1.79-6-1.43-5.05-3.17-12.09-4.64-20s-2.37-15.08-2.85-20.31c-.24-2.61-.4-4.73-.48-6.19l-.08-1.69A2.41,2.41,0,0,1,157.71,192.76Z" style="fill:#e0e0e0"></path><path d="M177.56,205a1.4,1.4,0,0,1,0,.49l-.23,1.38c-.21,1.2-.51,2.94-.85,5.09-.68,4.29-1.48,10.25-2,16.87s-.6,12.63-.57,17c0,2.17,0,3.93.07,5.15l0,1.4a1.56,1.56,0,0,1,0,.49,1.65,1.65,0,0,1-.07-.48l-.12-1.4c-.09-1.22-.18-3-.24-5.16a168,168,0,0,1,2.56-33.91c.39-2.15.74-3.88,1-5.06l.33-1.37A2.87,2.87,0,0,1,177.56,205Z" style="fill:#e0e0e0"></path><path d="M190.48,232.61c.14,0-.85,4.87-2.2,10.79s-2.57,10.71-2.71,10.68.85-4.86,2.2-10.79S190.34,232.58,190.48,232.61Z" style="fill:#e0e0e0"></path><path d="M73.57,173.92a37.23,37.23,0,0,1-22.81-17.16,33.05,33.05,0,0,1-2.39-27.27c2.49-6.93,7.29-13,9.35-20.1,2.34-8,.94-16.51-.5-24.7S54.31,68,56.5,60s9.09-15.6,18-16.18C82.68,43.27,90.28,49,93.71,56s3.45,15,2.65,22.7S94,94,94.49,101.67c1,15.57,10.33,30.22,9.23,45.77-.57,8.1-3.93,13.29-9.67,19.38-5,5.25-13.19,8.71-20.48,7.1" style="fill:#ebebeb"></path><path d="M76.48,251c-.09,0-.16-34.47-.16-77s.07-77,.16-77,.15,34.47.15,77S76.56,251,76.48,251Z" style="fill:#e0e0e0"></path><path d="M76,147a11.59,11.59,0,0,1-1.42-1.25c-.85-.8-2-1.93-3.21-3.23s-2.33-2.44-3.13-3.28A11.58,11.58,0,0,1,67,137.86a11.15,11.15,0,0,1,1.43,1.25c.84.8,2,1.94,3.21,3.23s2.33,2.44,3.13,3.28A11.57,11.57,0,0,1,76,147Z" style="fill:#e0e0e0"></path><path d="M77,114.76a10.78,10.78,0,0,0,3.15-1.31,8.83,8.83,0,0,0,2.52-2.54,8.6,8.6,0,0,0,1.37-4v-.13l.18.15A6.8,6.8,0,0,0,80.4,109a14.3,14.3,0,0,0-2.11,2.84c-.51.87-.86,1.6-1.1,2.1a4.75,4.75,0,0,1-.4.78,4.76,4.76,0,0,1,.28-.82,20,20,0,0,1,1-2.16,13.49,13.49,0,0,1,2.09-2.92,7,7,0,0,1,4-2.19l.19,0v.18l0,.14a8.77,8.77,0,0,1-4.08,6.72,8.11,8.11,0,0,1-2.34,1,6.42,6.42,0,0,1-.69.13Z" style="fill:#e0e0e0"></path><path d="M77,114.76a19.25,19.25,0,0,1,2.16-2.69,19.52,19.52,0,0,1,2.4-2.49,20.26,20.26,0,0,1-2.16,2.68A20.06,20.06,0,0,1,77,114.76Z" style="fill:#e0e0e0"></path><path d="M100.83,193.22A27.61,27.61,0,0,1,83.91,180.5a24.51,24.51,0,0,1-1.77-20.22c1.85-5.15,5.41-9.67,6.93-14.91,1.74-5.94.71-12.24-.36-18.32s-2.16-12.36-.54-18.33,6.74-11.57,13.32-12c6.1-.4,11.73,3.83,14.28,9s2.56,11.15,2,16.83-1.75,11.36-1.39,17.07c.74,11.54,7.66,22.4,6.85,33.94-.42,6-2.91,9.85-7.17,14.37-3.68,3.9-9.78,6.46-15.19,5.26" style="fill:#f5f5f5"></path><path d="M103,250.41c-.07,0-.12-25.57-.12-57.1s0-57.11.12-57.11.11,25.57.11,57.11S103.05,250.41,103,250.41Z" style="fill:#e0e0e0"></path><path d="M102.66,173.27a7.47,7.47,0,0,1-1.06-.93c-.63-.59-1.48-1.43-2.38-2.39s-1.73-1.81-2.32-2.44a9.53,9.53,0,0,1-.94-1,9.33,9.33,0,0,1,1.06.93c.62.6,1.48,1.43,2.38,2.39s1.72,1.81,2.32,2.44A9.53,9.53,0,0,1,102.66,173.27Z" style="fill:#e0e0e0"></path><path d="M103.35,149.35a7.89,7.89,0,0,0,2.33-1,6.51,6.51,0,0,0,2.89-4.87v-.1l.13.11a5,5,0,0,0-2.81,1.54,10.33,10.33,0,0,0-1.57,2.11c-.38.64-.64,1.18-.82,1.56a4,4,0,0,1-.29.58,3.89,3.89,0,0,1,.21-.61,13.89,13.89,0,0,1,.76-1.6,10.29,10.29,0,0,1,1.55-2.17,5.13,5.13,0,0,1,2.93-1.62l.15,0v.24a6.48,6.48,0,0,1-1.07,3.08,6.38,6.38,0,0,1-2,1.9,5.87,5.87,0,0,1-1.74.74,3.88,3.88,0,0,1-.5.09Z" style="fill:#e0e0e0"></path><path d="M103.35,149.35a13.92,13.92,0,0,1,1.59-2,15.07,15.07,0,0,1,1.78-1.85,14.55,14.55,0,0,1-1.6,2A15.15,15.15,0,0,1,103.35,149.35Z" style="fill:#e0e0e0"></path><path d="M239.45,193.22a27.56,27.56,0,0,1-16.91-12.72,24.47,24.47,0,0,1-1.78-20.22c1.85-5.15,5.41-9.67,6.94-14.91,1.73-5.94.7-12.24-.37-18.32s-2.16-12.36-.54-18.33,6.74-11.57,13.32-12c6.1-.4,11.73,3.83,14.28,9s2.56,11.15,2,16.83-1.75,11.36-1.38,17.07c.73,11.54,7.65,22.4,6.84,33.94-.42,6-2.91,9.85-7.17,14.37-3.68,3.9-9.78,6.46-15.19,5.26" style="fill:#f5f5f5"></path><path d="M241.61,250.41c-.07,0-.12-25.57-.12-57.1s0-57.11.12-57.11.11,25.57.11,57.11S241.67,250.41,241.61,250.41Z" style="fill:#e0e0e0"></path><path d="M241.28,173.27a8.2,8.2,0,0,1-1.06-.93c-.62-.59-1.48-1.43-2.38-2.39s-1.72-1.81-2.32-2.44a9.53,9.53,0,0,1-.94-1,9.33,9.33,0,0,1,1.06.93c.63.6,1.48,1.43,2.38,2.39s1.72,1.81,2.32,2.44A9.53,9.53,0,0,1,241.28,173.27Z" style="fill:#e0e0e0"></path><path d="M242,149.35a7.89,7.89,0,0,0,2.33-1,6.51,6.51,0,0,0,2.89-4.87v-.1l.13.11a5,5,0,0,0-2.81,1.54,10.33,10.33,0,0,0-1.57,2.11c-.37.64-.64,1.18-.82,1.56a3.06,3.06,0,0,1-.29.58,3.89,3.89,0,0,1,.21-.61,13.89,13.89,0,0,1,.76-1.6,10.29,10.29,0,0,1,1.55-2.17,5.16,5.16,0,0,1,2.94-1.62l.14,0v.24a6.48,6.48,0,0,1-3,5,5.94,5.94,0,0,1-1.73.74,4.29,4.29,0,0,1-.51.09Z" style="fill:#e0e0e0"></path><path d="M242,149.35a13.61,13.61,0,0,1,1.6-2,14.61,14.61,0,0,1,1.77-1.85,14.55,14.55,0,0,1-1.6,2A14.32,14.32,0,0,1,242,149.35Z" style="fill:#e0e0e0"></path></g><g id="freepik--Plants--inject-2"><path d="M259.42,384.28a4.26,4.26,0,0,1,.63.88c.38.59.89,1.46,1.48,2.55a59.21,59.21,0,0,1,6.24,18.39c.2,1.23.33,2.23.39,2.93a4.67,4.67,0,0,1,0,1.08c-.09,0-.3-1.51-.79-3.95a74,74,0,0,0-2.5-9.34,76.11,76.11,0,0,0-3.71-8.94C260.1,385.66,259.35,384.32,259.42,384.28Z" style="fill:#455a64"></path><path d="M266.28,382.08a4.8,4.8,0,0,1,.52,1.07c.3.7.7,1.72,1.18,3,.95,2.54,2.14,6.11,3.24,10.12s1.89,7.69,2.37,10.36c.24,1.34.41,2.43.51,3.19a4.73,4.73,0,0,1,.1,1.18,6,6,0,0,1-.3-1.15c-.18-.85-.41-1.9-.67-3.14-.57-2.66-1.42-6.31-2.51-10.3s-2.23-7.57-3.09-10.14c-.41-1.21-.75-2.23-1-3A5.86,5.86,0,0,1,266.28,382.08Z" style="fill:#455a64"></path><path d="M289.05,370a7.84,7.84,0,0,1-.46,1.46c-.35.92-.79,2.27-1.29,3.95s-1,3.71-1.47,6a70.49,70.49,0,0,0-1,7.47,68.69,68.69,0,0,0-.09,7.54c.12,2.32.32,4.4.58,6.13s.5,3.14.7,4.1a7.51,7.51,0,0,1,.25,1.51,9,9,0,0,1-.44-1.46c-.27-.95-.57-2.35-.87-4.09a56.57,56.57,0,0,1-.7-6.16,64.66,64.66,0,0,1,.05-7.6,63.31,63.31,0,0,1,1.05-7.53,57.3,57.3,0,0,1,1.58-6c.55-1.68,1.06-3,1.46-3.92A9,9,0,0,1,289.05,370Z" style="fill:#455a64"></path><path d="M306.76,386.25a6.25,6.25,0,0,1,1,.92c.63.61,1.5,1.53,2.53,2.72a62.47,62.47,0,0,1,7.06,10,63.3,63.3,0,0,1,5,11.22c.48,1.5.83,2.72,1,3.58a7,7,0,0,1,.27,1.34,6.5,6.5,0,0,1-.46-1.29c-.26-.83-.66-2-1.18-3.51a73.11,73.11,0,0,0-5.06-11.08A72.3,72.3,0,0,0,310,390.13c-1-1.21-1.81-2.17-2.4-2.82A6.77,6.77,0,0,1,306.76,386.25Z" style="fill:#455a64"></path><path d="M322.31,370.85a8,8,0,0,1-.29,1.51c-.11.48-.25,1.07-.37,1.76s-.3,1.47-.42,2.35a55.55,55.55,0,0,0-.63,6.16,61,61,0,0,0,.14,7.57,59.71,59.71,0,0,0,1.16,7.48,57.73,57.73,0,0,0,1.68,6c.27.84.57,1.58.82,2.24s.47,1.22.66,1.67a8.2,8.2,0,0,1,.55,1.44,9.52,9.52,0,0,1-.73-1.36,17.93,17.93,0,0,1-.75-1.64c-.27-.65-.61-1.39-.89-2.23a48.06,48.06,0,0,1-1.81-6,52.46,52.46,0,0,1-1.31-15.19,49.27,49.27,0,0,1,.75-6.19c.14-.88.34-1.66.5-2.35s.31-1.27.46-1.75A9.7,9.7,0,0,1,322.31,370.85Z" style="fill:#455a64"></path><path d="M343.18,373.77a8.89,8.89,0,0,1-.77,1.41c-.53.87-1.26,2.16-2.12,3.78a76.07,76.07,0,0,0-8.44,27.16c-.21,1.81-.34,3.29-.39,4.32a8.4,8.4,0,0,1-.17,1.59,11.78,11.78,0,0,1,0-1.6c0-1,.07-2.52.24-4.35s.45-4,.89-6.41a78.23,78.23,0,0,1,1.91-7.69,77.16,77.16,0,0,1,2.78-7.41c1-2.23,2-4.19,2.9-5.79s1.69-2.87,2.27-3.71A11.41,11.41,0,0,1,343.18,373.77Z" style="fill:#455a64"></path><path d="M322.82,463.62a6.21,6.21,0,0,1-.55-1.24c-.3-.81-.79-2-1.42-3.38a58.61,58.61,0,0,0-14.11-19.42c-1.15-1-2.1-1.86-2.78-2.4a6.67,6.67,0,0,1-1-.9,7.9,7.9,0,0,1,1.14.74c.71.5,1.71,1.27,2.89,2.28a52.74,52.74,0,0,1,14.21,19.55c.59,1.44,1,2.63,1.27,3.46A7.62,7.62,0,0,1,322.82,463.62Z" style="fill:#455a64"></path><path d="M325.84,457a11.13,11.13,0,0,1-.62-1.51l-1.55-4.14c-1.33-3.49-3.26-8.27-5.64-13.45s-4.76-9.75-6.54-13l-2.14-3.88a10.14,10.14,0,0,1-.74-1.45,10,10,0,0,1,.92,1.35c.56.88,1.34,2.18,2.28,3.8,1.87,3.24,4.31,7.8,6.7,13s4.26,10,5.5,13.54c.63,1.77,1.1,3.21,1.4,4.21A10.24,10.24,0,0,1,325.84,457Z" style="fill:#455a64"></path><path d="M327.65,432.41a3.51,3.51,0,0,1,.32.84c.17.55.39,1.35.64,2.35a67.21,67.21,0,0,1,1.44,7.92,68.51,68.51,0,0,1,.51,8c0,1,0,1.87-.07,2.44a3.19,3.19,0,0,1-.1.89,25.65,25.65,0,0,1-.2-3.32c-.09-2.05-.28-4.87-.65-8s-.88-5.89-1.29-7.9A25.71,25.71,0,0,1,327.65,432.41Z" style="fill:#455a64"></path><path d="M173,368a2.19,2.19,0,0,1-.34.43l-1,1.18c-.46.49-1,1.11-1.61,1.87s-1.33,1.57-2,2.56-1.53,2-2.3,3.24-1.57,2.49-2.39,3.87a66.08,66.08,0,0,0-7.35,19.41c-.3,1.58-.61,3.07-.77,4.49s-.33,2.73-.43,3.94-.13,2.31-.17,3.27-.05,1.79,0,2.47v1.57a2.15,2.15,0,0,1,0,.55,3.06,3.06,0,0,1-.07-.55l-.1-1.56c0-.68-.08-1.52-.05-2.48s0-2.08.1-3.29.16-2.56.36-4,.44-2.93.72-4.52a68.87,68.87,0,0,1,2.9-10.09,69.58,69.58,0,0,1,4.51-9.47c.84-1.38,1.62-2.71,2.46-3.87s1.6-2.26,2.35-3.22,1.48-1.79,2.11-2.53,1.2-1.34,1.69-1.82l1.11-1.11A2.06,2.06,0,0,1,173,368Z" style="fill:#455a64"></path><path d="M179.43,387.47c0,.11-2,.84-4.86,2.56-.73.43-1.52.91-2.33,1.5s-1.65,1.22-2.53,1.91a39.54,39.54,0,0,0-9.3,11.08c-.52,1-1,1.91-1.44,2.83s-.77,1.76-1.07,2.55c-1.19,3.17-1.57,5.25-1.68,5.23a8.31,8.31,0,0,1,.24-1.46,15.64,15.64,0,0,1,.41-1.7c.19-.65.37-1.4.68-2.2a25.38,25.38,0,0,1,1-2.6c.38-.93.89-1.88,1.41-2.88a41.18,41.18,0,0,1,4.16-6.08,40.73,40.73,0,0,1,5.25-5.14c.9-.69,1.74-1.36,2.6-1.9s1.64-1,2.38-1.46a22.67,22.67,0,0,1,2.05-1.06c.61-.3,1.15-.52,1.6-.69A8,8,0,0,1,179.43,387.47Z" style="fill:#455a64"></path><path d="M26.25,391.4a8.46,8.46,0,0,1,1.52.37,16.53,16.53,0,0,1,1.75.57c.67.25,1.45.51,2.27.9a29,29,0,0,1,2.66,1.29c1,.48,1.91,1.1,2.93,1.73a42.56,42.56,0,0,1,6.08,4.86,43.69,43.69,0,0,1,5,5.95c.65,1,1.3,1.94,1.8,2.88s1,1.81,1.36,2.63a23.87,23.87,0,0,1,1,2.24,17.28,17.28,0,0,1,.62,1.74,9,9,0,0,1,.41,1.51,8.93,8.93,0,0,1-.6-1.44c-.18-.48-.39-1.05-.7-1.7s-.59-1.4-1-2.19-.85-1.68-1.41-2.57-1.16-1.84-1.82-2.83a45.47,45.47,0,0,0-5-5.85,46.57,46.57,0,0,0-6-4.83c-1-.64-1.94-1.26-2.87-1.75s-1.8-1-2.61-1.34-1.56-.68-2.22-1-1.23-.49-1.71-.65A9.85,9.85,0,0,1,26.25,391.4Z" style="fill:#455a64"></path><path d="M48.29,400.9a3,3,0,0,1,.76.36A14.56,14.56,0,0,1,51,402.55a21,21,0,0,1,7.69,12.77,15,15,0,0,1,.24,2.29,2.51,2.51,0,0,1,0,.85c-.09,0-.15-1.2-.56-3.06a23.18,23.18,0,0,0-7.56-12.57C49.27,401.59,48.24,401,48.29,400.9Z" style="fill:#455a64"></path><path d="M153.18,393.8a26.09,26.09,0,0,1-1.21,2.47,44.87,44.87,0,0,0-4.06,12.5,19.2,19.2,0,0,1-.48,2.71,11.41,11.41,0,0,1,.12-2.76,34.3,34.3,0,0,1,1.43-6.51,33.64,33.64,0,0,1,2.67-6.11A10.15,10.15,0,0,1,153.18,393.8Z" style="fill:#455a64"></path><path d="M171.34,402.93a20.24,20.24,0,0,0-5.12,10.18,10.75,10.75,0,0,1,1.36-5.69A10.92,10.92,0,0,1,171.34,402.93Z" style="fill:#455a64"></path><path d="M177.1,402.13a20.86,20.86,0,0,0-7.28,12.2,6.13,6.13,0,0,1,.21-2.15,16.3,16.3,0,0,1,5.28-8.85A5.87,5.87,0,0,1,177.1,402.13Z" style="fill:#455a64"></path><path d="M140.76,409.55a5,5,0,0,1-.76.4c-.5.24-1.24.6-2.21,1-1.93.88-4.74,2.1-8.28,3.47a115.13,115.13,0,0,1-12.66,4.09,81.21,81.21,0,0,1-16.11,2.54,61.27,61.27,0,0,1-16.25-1.39A49.74,49.74,0,0,1,72,415.08a40.22,40.22,0,0,1-7.43-5c-.82-.67-1.38-1.29-1.79-1.66a4.48,4.48,0,0,1-.59-.62,5.66,5.66,0,0,1,.66.54c.44.35,1,.94,1.85,1.58a43.47,43.47,0,0,0,7.47,4.88,50.49,50.49,0,0,0,12.43,4.46,61.57,61.57,0,0,0,16.11,1.34c11.53-.6,21.61-3.86,28.67-6.46,3.55-1.32,6.38-2.49,8.33-3.31l2.25-.94A6.17,6.17,0,0,1,140.76,409.55Z" style="fill:#455a64"></path><path d="M92.35,438.32a5.1,5.1,0,0,1,1,.67c.63.45,1.51,1.16,2.56,2.07A58.71,58.71,0,0,1,109.35,458c.65,1.23,1.14,2.25,1.44,3a4.81,4.81,0,0,1,.42,1.13,6.59,6.59,0,0,1-.61-1.05c-.35-.68-.89-1.67-1.57-2.87a70.77,70.77,0,0,0-6-8.95,72.91,72.91,0,0,0-7.34-7.9c-1-.94-1.86-1.68-2.44-2.18A6,6,0,0,1,92.35,438.32Z" style="fill:#455a64"></path><path d="M100.89,435.63c.12-.08,3,4.69,6.35,10.63s6,10.83,5.91,10.9-3-4.69-6.36-10.64S100.76,435.7,100.89,435.63Z" style="fill:#455a64"></path><path d="M114.63,431.49a33,33,0,0,1,0,3.51,76.65,76.65,0,0,0,.39,8.44,74.25,74.25,0,0,0,1.36,8.33c.47,2.11.82,3.41.75,3.43a3.12,3.12,0,0,1-.36-.87c-.21-.58-.46-1.42-.74-2.47A55.81,55.81,0,0,1,114.24,435c.06-1.09.14-2,.22-2.57A3.16,3.16,0,0,1,114.63,431.49Z" style="fill:#455a64"></path><path d="M190.57,436a3.67,3.67,0,0,1,.57.81c.35.54.82,1.34,1.37,2.34a77.13,77.13,0,0,1,3.84,8.08,75.42,75.42,0,0,1,2.88,8.46c.3,1.11.53,2,.65,2.63a3.77,3.77,0,0,1,.16,1,33.25,33.25,0,0,1-1.16-3.51c-.69-2.18-1.7-5.16-3-8.38s-2.66-6.06-3.68-8.1A30.94,30.94,0,0,1,190.57,436Z" style="fill:#455a64"></path><path d="M197.19,428.05a31.81,31.81,0,0,1,.56,3.39c.33,2.09.85,5,1.6,8.1s1.63,5.93,2.3,7.93a31.23,31.23,0,0,1,1,3.27s-.19-.28-.44-.82-.58-1.33-1-2.32a68,68,0,0,1-2.45-7.94,65,65,0,0,1-1.46-8.18c-.12-1.05-.19-1.91-.21-2.5A2.91,2.91,0,0,1,197.19,428.05Z" style="fill:#455a64"></path><path d="M210.62,423.58a35.48,35.48,0,0,1-.64,3.6,87.25,87.25,0,0,0-1.2,8.71c-.29,3.43-.33,6.54-.3,8.79a34.65,34.65,0,0,1,0,3.66,3.62,3.62,0,0,1-.17-1c-.08-.63-.16-1.54-.23-2.67a64.73,64.73,0,0,1,.15-8.85,63.09,63.09,0,0,1,1.36-8.74c.25-1.11.48-2,.67-2.6A4.29,4.29,0,0,1,210.62,423.58Z" style="fill:#455a64"></path><path d="M193.51,311a7.16,7.16,0,0,1,1,1c.63.67,1.52,1.69,2.58,3a100.87,100.87,0,0,1,13.81,21.94c.69,1.51,1.22,2.75,1.56,3.62a8.09,8.09,0,0,1,.48,1.36,6.71,6.71,0,0,1-.67-1.28c-.39-.84-1-2.05-1.7-3.54a127.06,127.06,0,0,0-6.31-11.3,124,124,0,0,0-7.46-10.57c-1-1.31-1.86-2.35-2.45-3.07A9.53,9.53,0,0,1,193.51,311Z" style="fill:#455a64"></path><path d="M210.72,323a61.05,61.05,0,0,1,2.79,7.54,62.09,62.09,0,0,1,2.29,7.7,62.7,62.7,0,0,1-2.78-7.53A62.56,62.56,0,0,1,210.72,323Z" style="fill:#455a64"></path><path d="M224.05,300.73c.14,0-.31,7.69-1,17.16S221.65,335,221.51,335s.31-7.7,1-17.17S223.91,300.72,224.05,300.73Z" style="fill:#455a64"></path><path d="M550,395.57c.09,0-.23,1.43-.49,3.75a41.65,41.65,0,0,0,0,9.09,42.24,42.24,0,0,0,2,8.88c.75,2.21,1.36,3.52,1.28,3.56a4,4,0,0,1-.51-.88,27,27,0,0,1-1.12-2.56,36.07,36.07,0,0,1-1.93-18.14,24.72,24.72,0,0,1,.55-2.73A4.1,4.1,0,0,1,550,395.57Z" style="fill:#455a64"></path><path d="M558.49,398.69c.08,0-.31,1.21-.78,3.15a43.23,43.23,0,0,0-.94,15.48c.23,2,.47,3.2.39,3.22a3.18,3.18,0,0,1-.27-.84c-.15-.54-.32-1.34-.49-2.33a36.14,36.14,0,0,1,1-15.62c.28-1,.55-1.74.76-2.26A2.62,2.62,0,0,1,558.49,398.69Z" style="fill:#455a64"></path><path d="M575.35,394.25c.06.08-1.26,1-3.05,2.79a26.81,26.81,0,0,0-2.86,3.43,27.57,27.57,0,0,0-4.39,9.93,27.94,27.94,0,0,0-.6,4.43c-.13,2.54.1,4.12,0,4.13a5.15,5.15,0,0,1-.2-1.1,10.13,10.13,0,0,1-.13-1.31c0-.51-.07-1.09,0-1.74a25.81,25.81,0,0,1,.5-4.51,28.86,28.86,0,0,1,1.7-5.29,28.23,28.23,0,0,1,2.77-4.82,24.68,24.68,0,0,1,3-3.41,15.39,15.39,0,0,1,1.31-1.15,9,9,0,0,1,1-.79A4.41,4.41,0,0,1,575.35,394.25Z" style="fill:#455a64"></path><path d="M667.94,281.82a5.82,5.82,0,0,1-.67,1.07l-1.95,2.81a60.76,60.76,0,0,0-5.69,9.69,27.53,27.53,0,0,0-2.51,10.83,38.05,38.05,0,0,0,.39,4.64,5.73,5.73,0,0,1-.36-1.21,17.22,17.22,0,0,1-.4-3.42,26,26,0,0,1,2.4-11.05,52.59,52.59,0,0,1,5.87-9.69c.86-1.17,1.58-2.09,2.09-2.72A6.2,6.2,0,0,1,667.94,281.82Z" style="fill:#455a64"></path><path d="M693.91,273.94a2.44,2.44,0,0,1-.47.33l-1.39.86-1,.61c-.36.23-.74.51-1.15.8-.81.59-1.79,1.21-2.74,2-.49.41-1,.83-1.54,1.26s-1,1-1.57,1.47a47.37,47.37,0,0,0-3.29,3.43,55.48,55.48,0,0,0-6.18,8.94,54.71,54.71,0,0,0-4.11,10.06c-.41,1.62-.86,3.15-1.08,4.62-.12.74-.28,1.44-.37,2.13s-.14,1.34-.21,2a34.1,34.1,0,0,0-.21,3.41c0,.51-.05,1-.05,1.41s0,.81,0,1.17c0,.67,0,1.21,0,1.64a1.9,1.9,0,0,1,0,.57,3.32,3.32,0,0,1-.08-.56c0-.43-.08-1-.14-1.64,0-.36-.06-.75-.09-1.18s0-.91,0-1.41a33,33,0,0,1,.14-3.44c.06-.64.12-1.31.19-2s.22-1.4.34-2.14a44.42,44.42,0,0,1,1-4.68,48.78,48.78,0,0,1,10.39-19.18,45.73,45.73,0,0,1,3.35-3.43c.56-.5,1.07-1,1.61-1.46l1.57-1.25a32,32,0,0,1,2.81-2c.42-.28.81-.55,1.18-.77l1-.58,1.44-.77A2.71,2.71,0,0,1,693.91,273.94Z" style="fill:#455a64"></path><path d="M504.16,432.43c.07.07-1.24,1.45-3,4a45.79,45.79,0,0,0-2.82,4.58,47.66,47.66,0,0,0-2.66,6,46.93,46.93,0,0,0-1.71,6.35,44.06,44.06,0,0,0-.68,5.34c-.19,3.07,0,5-.14,5a5.88,5.88,0,0,1-.17-1.34c0-.43-.07-.95-.07-1.57s0-1.31,0-2.09a38.12,38.12,0,0,1,.58-5.4,43.06,43.06,0,0,1,1.69-6.44,43.51,43.51,0,0,1,2.73-6.08,38.8,38.8,0,0,1,3-4.57c.44-.63.91-1.16,1.3-1.63a15.64,15.64,0,0,1,1-1.18A6.22,6.22,0,0,1,504.16,432.43Z" style="fill:#455a64"></path><path d="M508.55,439.56c.06.07-.87,1-2.13,2.69a28.33,28.33,0,0,0-3.89,7.21,28.9,28.9,0,0,0-1.66,8c-.12,2.11,0,3.42-.09,3.43a3.05,3.05,0,0,1-.16-.91,17.45,17.45,0,0,1-.11-2.53A25.49,25.49,0,0,1,506.13,442a17.27,17.27,0,0,1,1.7-1.86A3.37,3.37,0,0,1,508.55,439.56Z" style="fill:#455a64"></path><path d="M636.71,438.39a35.55,35.55,0,0,1,.43,3.55,77.44,77.44,0,0,0,1.42,8.47,79,79,0,0,0,2.35,8.27c.71,2.08,1.21,3.35,1.14,3.38s-.2-.28-.46-.84-.62-1.38-1-2.42a57.78,57.78,0,0,1-2.51-8.27,58.61,58.61,0,0,1-1.28-8.56c-.08-1.1-.11-2-.11-2.62A3.82,3.82,0,0,1,636.71,438.39Z" style="fill:#455a64"></path><path d="M642.38,437.79a86.79,86.79,0,0,1,.31,9.39,85.66,85.66,0,0,1-.21,9.4,84.09,84.09,0,0,1-.31-9.4A85.4,85.4,0,0,1,642.38,437.79Z" style="fill:#455a64"></path><path d="M650.13,437.85a60.6,60.6,0,0,0-2.47,7.68,62.6,62.6,0,0,0-.9,8,8.05,8.05,0,0,1-.21-2.39A27.33,27.33,0,0,1,649,439.94,8.16,8.16,0,0,1,650.13,437.85Z" style="fill:#455a64"></path><path d="M570.66,296.34c.13-.06,2.52,5,5.32,11.32s5,11.48,4.85,11.54-2.51-5-5.32-11.33S570.53,296.4,570.66,296.34Z" style="fill:#455a64"></path><path d="M581.69,294.37c.08,0,.21,1.33.52,3.46a76.05,76.05,0,0,0,1.64,8.25,78.09,78.09,0,0,0,2.57,8,29.34,29.34,0,0,1,1.22,3.28,3.77,3.77,0,0,1-.48-.82c-.28-.53-.65-1.33-1.08-2.32a56.44,56.44,0,0,1-2.73-8,57.58,57.58,0,0,1-1.51-8.33c-.11-1.08-.17-2-.18-2.57A2.9,2.9,0,0,1,581.69,294.37Z" style="fill:#455a64"></path><path d="M596.28,296.32a20.1,20.1,0,0,1-.83,2.83,70.77,70.77,0,0,0-1.77,6.87,68.82,68.82,0,0,0-1.06,7,23.39,23.39,0,0,1-.34,2.94,13.06,13.06,0,0,1,0-3,48.56,48.56,0,0,1,.92-7.09A49.19,49.19,0,0,1,595.1,299,13,13,0,0,1,596.28,296.32Z" style="fill:#455a64"></path></g><g id="freepik--chicken-2--inject-2"><path d="M647.09,404.28c-.14.44,0,18.53,0,18.53s-14.15,7.43-12,7,10.5-3.65,10.5-3.65-5,4.56-3.16,3.67a44.46,44.46,0,0,0,5.59-4s13.47.44,10.7-.58a61.51,61.51,0,0,0-8.75-1.9l1-17.21Z" style="fill:#eb996e"></path><path d="M642.13,430a.08.08,0,0,1-.07,0c-.21-.31,3.1-3.34,3.53-3.73-.7.27-8.38,3.21-10.46,3.63-.15,0-.22,0-.23,0-.18-.49,11.6-6.7,12.18-7,0-.82-.14-18.09,0-18.52h0l3.94,1.9h0l-1,17.2a61.48,61.48,0,0,1,8.74,1.9c.28.1.4.19.38.27-.13.68-10.58.35-11.08.33a43.35,43.35,0,0,1-5.59,3.95A.91.91,0,0,1,642.13,430Zm3.55-3.82,0,0c-1.31,1.19-3.73,3.5-3.56,3.74,0,0,.1,0,.39-.09a44.56,44.56,0,0,0,5.58-4h0c.11,0,10.94.35,11.06-.31,0-.05,0-.14-.36-.25a61.82,61.82,0,0,0-8.75-1.9h0l1-17.2-3.92-1.89c-.14.66,0,18.33,0,18.51h0c-4.28,2.24-12.32,6.59-12.19,7,0,0,.05,0,.22,0,2.16-.44,10.42-3.62,10.5-3.65Z" style="fill:#263238"></path><path d="M669.12,404.28c-.15.44,0,18.53,0,18.53s-14.15,7.43-12,7,10.5-3.65,10.5-3.65-5,4.56-3.17,3.67a44.46,44.46,0,0,0,5.59-4s13.47.44,10.7-.58a61.51,61.51,0,0,0-8.75-1.9l1-17.21Z" style="fill:#eb996e"></path><path d="M664.15,430a.09.09,0,0,1-.07,0c-.21-.31,3.11-3.34,3.53-3.73-.69.27-8.38,3.21-10.45,3.63-.15,0-.23,0-.24,0-.18-.49,11.61-6.7,12.19-7,0-.82-.15-18.09,0-18.52h0l3.94,1.9h0l-1,17.2a61.53,61.53,0,0,1,8.75,1.9c.27.1.39.19.38.27-.13.67-10.59.35-11.08.33a44.1,44.1,0,0,1-5.59,3.95A1,1,0,0,1,664.15,430Zm3.55-3.82,0,0c-1.3,1.19-3.73,3.5-3.56,3.74,0,0,.1,0,.39-.09a44.89,44.89,0,0,0,5.59-4h0c.11,0,10.94.35,11.07-.31,0-.05,0-.14-.37-.25a61.82,61.82,0,0,0-8.75-1.9h0l1-17.2-3.92-1.89c-.14.66,0,18.33,0,18.51h0c-4.27,2.24-12.32,6.59-12.18,7,0,0,0,0,.21,0,2.17-.44,10.42-3.62,10.5-3.65Z" style="fill:#263238"></path><path d="M585.67,391.27a6.77,6.77,0,0,0-2.84.46,2.82,2.82,0,0,1-2.77.21c-1.62-1-.49-4-1.91-5.26-.3-.27-.69-.44-1-.71a.93.93,0,0,1-.3-1.09c.25-.42.88-.4,1.23-.74.54-.54,0-1.44-.48-2s-1-1.52-.39-2c.39-.33,1-.17,1.49-.32.87-.25,1.16-1.33,1.32-2.22s.51-2,1.4-2.16c1.25-.26,2.52,1.5,3.59.8.78-.5.46-1.72.83-2.57.51-1.16,2.33-1.24,3.22-.33a3.58,3.58,0,0,1,.57,3.58,17.16,17.16,0,0,1-1.79,3.35,17.54,17.54,0,0,0-2.18,11" style="fill:#FF725E"></path><path d="M588.19,378.1c.16-.63,15.55-12.53,17.93-16s9-9.36,13.32-12.22,70.92-29.19,70.92-29.19,24.28-10.79,25.86-6.5-1.58,12.37-2.85,12.53,2.85,6.82-2.54,11.26c0,0,2.54.48-2.06,6.19s-14.6,13.17-14.6,13.17,2.22,18.09-3.49,26.5-15.87,14.43-15.87,14.43l-1.76,7.93-5.22-.63-10.31-4-4,2.23-1.13,4s-5.51-.47-6.55-1.43-5.49-7.61-5.49-7.61L631.5,397s-20.78,1.27-24.27-1-6.35-3.81-6.35-3.81l-7.14,2.07s-7.59,1.4-8.25-5.56C584.81,381.62,588.19,378.1,588.19,378.1Z" style="fill:#fafafa"></path><path d="M588.19,378.1l-.23.3a9.43,9.43,0,0,0-.61.93,13.32,13.32,0,0,0-1.52,4.05,16.47,16.47,0,0,0-.34,3.17,12.25,12.25,0,0,0,.44,3.8,5.16,5.16,0,0,0,2.82,3.24,8.85,8.85,0,0,0,5,.57h0l7.13-2.08.06,0,.05,0,6,3.56a8.43,8.43,0,0,0,3.49,1.06c1.25.18,2.55.27,3.88.34,5.31.23,11.08.06,17.21-.27h0l8.88,1.74h.09l0,.08c1.42,2.1,2.89,4.28,4.5,6.43.21.26.41.53.63.78s.21.24.32.36a2.87,2.87,0,0,0,.39.23,9.71,9.71,0,0,0,1.92.56c1.34.26,2.73.44,4.12.57l-.23.16c.34-1.21.73-2.58,1.13-4l0-.08.08-.05,4-2.22.09-.06.1,0,10.32,4h-.06l5.22.62-.26.19c.54-2.46,1.15-5.18,1.75-7.93l0-.1.09-.06a63.22,63.22,0,0,0,9.19-7,36.42,36.42,0,0,0,7.58-9.15,26.46,26.46,0,0,0,1.9-5.78,46.38,46.38,0,0,0,.81-6.15,73.53,73.53,0,0,0-.26-12.66v-.15l.11-.09a122.08,122.08,0,0,0,11.45-9.74,37.46,37.46,0,0,0,4-4.52,13.48,13.48,0,0,0,1.49-2.48,3.64,3.64,0,0,0,.34-1.29.78.78,0,0,0-.48-.86l-.52-.13.4-.33a7.35,7.35,0,0,0,2.43-3.53,9.93,9.93,0,0,0,.2-4.31c-.1-.72-.26-1.43-.38-2.18a3.69,3.69,0,0,1-.06-.6,1,1,0,0,1,.06-.36.51.51,0,0,1,.39-.33c.19,0,.45-.34.64-.62a15.59,15.59,0,0,0,1.69-3.95,19.26,19.26,0,0,0,.75-4.23,10.59,10.59,0,0,0-.08-2.11c-.12-.67-.24-1.45-.71-1.75a3.64,3.64,0,0,0-1.94-.37,14.78,14.78,0,0,0-2.09.2c-1.39.24-2.76.58-4.11.95a139.53,139.53,0,0,0-15.54,5.7c-5,2.08-10,4-14.75,5.9-19.17,7.65-36.37,14.51-50.62,20.59-3.55,1.55-7,2.86-9.67,5.16a76.63,76.63,0,0,0-7.38,6.47,30.55,30.55,0,0,0-2.93,3.3,20.06,20.06,0,0,1-2.76,3.07c-1.91,1.81-3.74,3.36-5.38,4.76-3.3,2.78-5.9,4.87-7.64,6.32-.87.72-1.53,1.27-2,1.66a5.7,5.7,0,0,0-.47.44l-.15.16a16.63,16.63,0,0,1,2.53-2.34l7.57-6.39c1.63-1.41,3.45-3,5.35-4.78a21.74,21.74,0,0,0,2.71-3,31.2,31.2,0,0,1,2.94-3.35,75.51,75.51,0,0,1,7.38-6.52c.7-.53,1.41-1.07,2.15-1.58l.56-.38.6-.32c.41-.21.81-.46,1.24-.64q2.5-1.17,5.18-2.32c14.24-6.13,31.42-13,50.59-20.7,4.78-1.93,9.74-3.83,14.72-5.91a139.9,139.9,0,0,1,15.6-5.73,40.77,40.77,0,0,1,4.17-1,17.17,17.17,0,0,1,2.16-.21,4.07,4.07,0,0,1,2.23.46,1.75,1.75,0,0,1,.69,1,8.56,8.56,0,0,1,.25,1.09,11.78,11.78,0,0,1,.08,2.22,19.47,19.47,0,0,1-.77,4.34,15.65,15.65,0,0,1-1.76,4.11,1.87,1.87,0,0,1-1,.83s0,0,0,.2a3,3,0,0,0,0,.5c.11.71.28,1.45.38,2.19a10.27,10.27,0,0,1-.22,4.54,7.79,7.79,0,0,1-2.59,3.77l-.11-.45a1.3,1.3,0,0,1,.9,1.38,4.15,4.15,0,0,1-.38,1.49,14.71,14.71,0,0,1-1.55,2.58,37.77,37.77,0,0,1-4,4.58,124.65,124.65,0,0,1-11.51,9.79l.11-.24a74.6,74.6,0,0,1,.26,12.75,47.84,47.84,0,0,1-.83,6.23,27.56,27.56,0,0,1-1.94,5.9,36.8,36.8,0,0,1-7.71,9.28,63.78,63.78,0,0,1-9.27,7l.11-.15c-.61,2.74-1.22,5.46-1.76,7.92l0,.21-.22,0-5.22-.63h0l-10.31-4,.19,0-4,2.22.11-.13-1.14,4,0,.18-.18,0a38.39,38.39,0,0,1-4.17-.59,9.93,9.93,0,0,1-2-.6,2.25,2.25,0,0,1-.48-.3c-.13-.13-.26-.26-.37-.39l-.64-.8c-1.62-2.17-3.08-4.36-4.51-6.47l.14.09-8.89-1.76h0c-6.14.32-11.92.46-17.25.22-1.33-.08-2.64-.17-3.91-.36a8.91,8.91,0,0,1-3.6-1.11l-5.94-3.58h.11l-7.15,2.05h0a9.12,9.12,0,0,1-5.1-.62,5.37,5.37,0,0,1-2.91-3.38,12.37,12.37,0,0,1-.42-3.86,16.66,16.66,0,0,1,.37-3.2,13.42,13.42,0,0,1,1.59-4.06A6.12,6.12,0,0,1,588.19,378.1Z" style="fill:#263238"></path><path d="M585.49,388.73a12.22,12.22,0,0,0-1,9.51c.16.39.46.84.88.77s.49-.35.63-.63c.76-1.52,1.72-3.47,2.49-5Z" style="fill:#eb996e"></path><path d="M588.93,386.7a1.26,1.26,0,1,1-1.26-1.25A1.25,1.25,0,0,1,588.93,386.7Z" style="fill:#263238"></path><path d="M587.15,396.16a4.49,4.49,0,0,0,.54,2.36,1.53,1.53,0,0,0,2.12.51,3.6,3.6,0,0,0,.62-.9,1.07,1.07,0,0,1,.86-.6c.39,0,.67.36,1,.56a1.67,1.67,0,0,0,1.88-.22,2.13,2.13,0,0,0,.64-1.83,5.36,5.36,0,0,1-.25-1.76c.1-.52.52-.93.59-1.46a1.74,1.74,0,0,0-1.29-1.7,4.34,4.34,0,0,0-4.33,1.21,12.76,12.76,0,0,0-2.49,4" style="fill:#FF725E"></path><path d="M585.46,391.15a2.38,2.38,0,0,1-.05,1.24,2.65,2.65,0,0,1-.45,1.17,7.32,7.32,0,0,1,.25-1.21A7.15,7.15,0,0,1,585.46,391.15Z" style="fill:#263238"></path><path d="M642.47,365.25A53.32,53.32,0,0,0,660,372.91c3.76.9,7.77,1.37,11.44.19s6.94-4.33,7.22-8.18c2,.4,4.17.8,6.16.19s3.74-2.56,3.34-4.6c-.13-.7-.5-1.42-.22-2.07s1-.88,1.61-1.13a11.61,11.61,0,0,0,6.75-7.4c.17-.58.25-1.31-.23-1.69a1.66,1.66,0,0,0-1.52,0c-5.64,1.73-11.8,4.65-17.71,3.68l2.76,2.7c-5.32,2.17-10.94,2.18-16.64,1.55a12.55,12.55,0,0,1,3,3.08,4.55,4.55,0,0,1,.1,4.26c-.63,1.26-2.09,1.83-3.44,2.21a31.8,31.8,0,0,1-18.82-.64" style="fill:#e0e0e0"></path><path d="M695.58,346s-.35.39-1.05,1.05a20,20,0,0,1-3.38,2.47,20.89,20.89,0,0,1-6,2.35,20.53,20.53,0,0,1-8.34.13l.08-.16,2.76,2.7.11.1-.14.06a25.65,25.65,0,0,1-14.08,1.86,28.41,28.41,0,0,1-3.11-.67l.09-.19a17.59,17.59,0,0,1,2.77,2.45,5.75,5.75,0,0,1,1.46,3.26,3.58,3.58,0,0,1-1.21,3.16,7.1,7.1,0,0,1-3,1.31,36.54,36.54,0,0,1-11.24.78,36.13,36.13,0,0,1-7.41-1.42c-1.69-.53-2.59-.92-2.59-.92l.67.22c.44.16,1.1.37,1.94.63a37.8,37.8,0,0,0,7.41,1.35,36.93,36.93,0,0,0,11.18-.82,7,7,0,0,0,2.94-1.28,3.38,3.38,0,0,0,1.14-3,5.53,5.53,0,0,0-1.41-3.14,17.19,17.19,0,0,0-2.74-2.42l-.43-.33.52.15a27.87,27.87,0,0,0,3.08.66,25.59,25.59,0,0,0,14-1.82l0,.15-2.76-2.71-.21-.21.3.06a20.22,20.22,0,0,0,8.27-.1,20.71,20.71,0,0,0,6-2.3,21.19,21.19,0,0,0,3.4-2.41c.37-.32.62-.59.81-.75S695.58,346,695.58,346Z" style="fill:#263238"></path><path d="M626.29,388.84a2.92,2.92,0,0,1-.46.14c-.29.08-.73.17-1.27.26a18.06,18.06,0,0,1-8.51-.7,11.45,11.45,0,0,1-1.21-.46,1.77,1.77,0,0,1-.43-.22s.64.23,1.69.54a20.51,20.51,0,0,0,8.44.7C625.62,389,626.28,388.8,626.29,388.84Z" style="fill:#263238"></path><path d="M630.38,387.29a1.88,1.88,0,0,1-.49.15c-.31.08-.78.18-1.35.27a19.84,19.84,0,0,1-4.55.19,20.2,20.2,0,0,1-4.47-.83c-.56-.18-1-.33-1.3-.46a1.94,1.94,0,0,1-.46-.22,3.23,3.23,0,0,1,.49.14c.3.11.75.24,1.31.4a22.59,22.59,0,0,0,9,.64c.57-.08,1-.15,1.35-.21A2.56,2.56,0,0,1,630.38,387.29Z" style="fill:#263238"></path><path d="M642.62,385.5a5.37,5.37,0,0,1-1.24.09,23.22,23.22,0,0,1-3-.17,24.26,24.26,0,0,1-2.95-.52,5.6,5.6,0,0,1-1.18-.37,9.17,9.17,0,0,1,1.21.22c.75.15,1.79.33,2.94.47s2.21.19,3,.22A11.06,11.06,0,0,1,642.62,385.5Z" style="fill:#263238"></path><path d="M648.06,384.13s-.11.05-.33.09a7.81,7.81,0,0,1-.91.13,13.13,13.13,0,0,1-3.05,0,13.41,13.41,0,0,1-2.95-.74,8.33,8.33,0,0,1-.85-.36,1.52,1.52,0,0,1-.3-.17,11.71,11.71,0,0,1,1.19.39,17.32,17.32,0,0,0,2.94.67,17.11,17.11,0,0,0,3,.11C647.58,384.16,648.05,384.1,648.06,384.13Z" style="fill:#263238"></path></g><g id="freepik--chicken-1--inject-2"><path d="M156.65,340a4.88,4.88,0,0,0-1.23-2.69c-.64-.67-1.5-1.09-2.15-1.74a4.23,4.23,0,0,1-1.18-2.27,3.2,3.2,0,0,0-.33-1.3c-.25-.37-.86-.55-1.14-.19a1.34,1.34,0,0,0-.16.72.61.61,0,0,1-.38.59c-.39-.85-.78-1.69-1.18-2.54a2.1,2.1,0,0,0-.7-.95c-.34-.2-.89-.12-1,.26a1.51,1.51,0,0,0,.08.78c0,.26,0,.6-.3.64s-.47-.35-.55-.66a3.61,3.61,0,0,0-1.57-2.1.74.74,0,0,0-.67-.12c-.31.15-.29.6-.18.93s.27.71.07,1a.72.72,0,0,1-.67.26,6.3,6.3,0,0,1-.75-.18,2.31,2.31,0,0,0-2,4,6,6,0,0,0,3,.89,12.35,12.35,0,0,1,5.82,2.74,18.89,18.89,0,0,1,4.15,5l2.92-.08A9.61,9.61,0,0,0,156.65,340Z" style="fill:#FF725E"></path><g style="opacity:0.30000000000000004"><path d="M141.2,335a1.82,1.82,0,0,1,.94-1.42,1.8,1.8,0,0,1,1.7,0,7.54,7.54,0,0,0,.7.45.67.67,0,0,0,.77-.1c.17-.21.12-.52.24-.75a.76.76,0,0,1,.95-.31,1.6,1.6,0,0,1,.78.76c.18.32.31.66.52,1,.88,1.25,2.76,1.32,3.86,2.38s1.18,3,2.32,4.08c.21.19.47.42.4.7s-.48.38-.79.31a3,3,0,0,1-1.67-1.12c-.43-.52-.76-1.13-1.15-1.69a10.08,10.08,0,0,0-9.7-4.12"></path></g><path d="M32.76,357.27s4.43.11,12,5,13.35,6.9,16,6.46S73.47,361,79.48,363c5,1.63,12.84,3.73,15.41,4.4a4.92,4.92,0,0,0,1.71.14l17.28-1.66a4.89,4.89,0,0,0,3.94-2.76c2.35-4.93,7.73-15.78,11.3-19.52,4.68-4.89,9.8-8.9,14.69-8.46s9.8,5.79,9.58,9.58c-.13,2.08-2.07,4.06-3.79,5.43a4.88,4.88,0,0,0-1.59,5.24c2.3,7.5,7.3,25.25,5.38,31.84-2.45,8.46-12,21.62-15.52,23.63s-16.33,6.22-21.68,7.33-10.08,2.73-16.74,2.73c-5.43,0-24.72-2.9-29.84-7.37-5.44-4.77-6.16-8.79-7.07-9.58-.11-.1-.21-.17-.32-.26-1.3-.95-12.33-9.06-15.58-13.74A5,5,0,0,0,44.16,388c-2.65-.93-7.4-3-7.16-5.68v-.06a5,5,0,0,0-1.44-3.46A9.13,9.13,0,0,1,33,374.38a5,5,0,0,1-.05-1.86,4.51,4.51,0,0,0-.81-3.75c-1.76-2.21-3.91-5.54-3.28-8C29.84,356.9,32.76,357.27,32.76,357.27Z" style="fill:#fafafa"></path><path d="M32.76,357.27a3.37,3.37,0,0,0-1.87.49,4.1,4.1,0,0,0-1.54,1.79,4.8,4.8,0,0,0-.42,3.2,12.12,12.12,0,0,0,1.71,3.79c.42.65.89,1.3,1.41,2a4.4,4.4,0,0,1,1.07,2.43,5.2,5.2,0,0,1,0,1.42,4.45,4.45,0,0,0-.06,1.41,6.78,6.78,0,0,0,1,2.81,13.94,13.94,0,0,0,2,2.51,5.12,5.12,0,0,1,1.16,3.25h0a2.65,2.65,0,0,0,.34,1.39,5.12,5.12,0,0,0,1,1.15,12.08,12.08,0,0,0,2.69,1.71,26.84,26.84,0,0,0,3.1,1.28A5.61,5.61,0,0,1,47,390.14a39.16,39.16,0,0,0,5.14,5.27c1.91,1.68,3.95,3.35,6.09,5,1.07.83,2.17,1.67,3.29,2.5l.84.62a2.36,2.36,0,0,1,.76.84c.35.64.64,1.28,1,1.91a23.59,23.59,0,0,0,5.4,6.82,13.44,13.44,0,0,0,3.85,2.3A41.11,41.11,0,0,0,77.71,417a88.33,88.33,0,0,0,9.37,2.19c3.22.58,6.53,1.07,9.91,1.36a38.7,38.7,0,0,0,10.26-.63c3.43-.65,6.91-1.58,10.43-2.34s7-2,10.52-3.17q2.64-.88,5.27-1.9c.87-.34,1.74-.69,2.6-1.07a11.64,11.64,0,0,0,2.43-1.34,47.4,47.4,0,0,0,7.33-8.78,71.1,71.1,0,0,0,5.8-10.17c.41-.89.76-1.82,1.1-2.74.14-.47.32-.94.44-1.41a13.85,13.85,0,0,0,.27-1.43,26.86,26.86,0,0,0-.12-5.94,122.37,122.37,0,0,0-3.83-18.25c-.41-1.48-.83-2.95-1.27-4.41-.2-.74-.47-1.43-.62-2.23a5.42,5.42,0,0,1,.17-2.37,5.09,5.09,0,0,1,1.22-2c.59-.56,1.17-1,1.7-1.49a7.82,7.82,0,0,0,2.35-3.57,6,6,0,0,0-.91-4.07,12.23,12.23,0,0,0-2.77-3.27,12,12,0,0,0-3.67-2.14,8.21,8.21,0,0,0-4.14-.31,17.39,17.39,0,0,0-7.39,3.76c-1.09.86-2.12,1.79-3.11,2.74a30.23,30.23,0,0,0-2.79,3,57.41,57.41,0,0,0-4.35,6.79c-1.3,2.31-2.52,4.64-3.69,7-.57,1.16-1.14,2.32-1.71,3.46a14.09,14.09,0,0,1-.89,1.72,5.08,5.08,0,0,1-3.22,2.1c-.66.12-1.25.14-1.88.21l-3.66.35-7.14.68-3.47.33-1.72.16a4.9,4.9,0,0,1-1.75-.17c-4.37-1.16-8.55-2.31-12.51-3.51l-2.93-.92a8.1,8.1,0,0,0-2.89-.27,19.67,19.67,0,0,0-5.5,1.4c-1.73.68-3.36,1.46-4.93,2.25s-3,1.61-4.61,2.21a5.29,5.29,0,0,1-2.46.14,15.39,15.39,0,0,1-2.3-.51,30,30,0,0,1-4.13-1.59A59.31,59.31,0,0,1,45.77,363a41.53,41.53,0,0,0-9.41-4.9,19.51,19.51,0,0,0-2.67-.73,8,8,0,0,0-.93-.14,5.54,5.54,0,0,1,.94.09,18,18,0,0,1,2.69.68,40.52,40.52,0,0,1,9.49,4.83,62,62,0,0,0,6.75,3.67,30.42,30.42,0,0,0,4.09,1.55,16.82,16.82,0,0,0,2.26.5,5.1,5.1,0,0,0,2.33-.15c1.51-.58,3-1.43,4.57-2.21s3.2-1.59,5-2.28a20,20,0,0,1,5.59-1.44,8.25,8.25,0,0,1,3,.28l2.92.9c4,1.19,8.14,2.33,12.51,3.48a8.88,8.88,0,0,0,3.33,0l3.47-.34,7.14-.69,3.66-.36c.61-.07,1.26-.1,1.83-.2a4.49,4.49,0,0,0,1.65-.67,4.55,4.55,0,0,0,1.29-1.26,12.9,12.9,0,0,0,.86-1.66l1.7-3.46c1.17-2.32,2.39-4.66,3.69-7a59.2,59.2,0,0,1,4.38-6.86,31.33,31.33,0,0,1,2.83-3,41.71,41.71,0,0,1,3.15-2.78,17.72,17.72,0,0,1,7.61-3.87,8.6,8.6,0,0,1,4.38.33,12.46,12.46,0,0,1,3.83,2.22,12.81,12.81,0,0,1,2.89,3.41,6.4,6.4,0,0,1,1,4.43,8.31,8.31,0,0,1-2.49,3.83c-.53.53-1.2,1-1.69,1.48a4.39,4.39,0,0,0-1.09,1.83,4.65,4.65,0,0,0-.16,2.13c.13.69.4,1.44.61,2.16.43,1.47.86,2.94,1.27,4.42a123.65,123.65,0,0,1,3.85,18.33,27.91,27.91,0,0,1,.11,6.06c0,.51-.19,1-.28,1.51s-.3,1-.45,1.44c-.34.94-.7,1.88-1.12,2.78a70.22,70.22,0,0,1-5.85,10.25,47.08,47.08,0,0,1-7.43,8.89,12.47,12.47,0,0,1-2.54,1.41c-.87.38-1.75.73-2.63,1.08-1.76.68-3.52,1.3-5.29,1.9-3.53,1.19-7,2.29-10.56,3.17s-7,1.68-10.46,2.34A39.2,39.2,0,0,1,97,421c-3.4-.3-6.72-.79-10-1.38a89.69,89.69,0,0,1-9.41-2.22,41.61,41.61,0,0,1-4.43-1.59,14.3,14.3,0,0,1-4-2.38,24,24,0,0,1-5.48-7c-.34-.63-.63-1.29-1-1.89a1.85,1.85,0,0,0-.64-.72l-.84-.63c-1.13-.84-2.22-1.67-3.29-2.51-2.14-1.68-4.18-3.36-6.09-5.06a38.76,38.76,0,0,1-5.18-5.33,5.27,5.27,0,0,0-2.57-2.16A28.2,28.2,0,0,1,41,386.87a12.68,12.68,0,0,1-2.75-1.77,5.57,5.57,0,0,1-1-1.23,2.89,2.89,0,0,1-.37-1.55h0a4.8,4.8,0,0,0-1.09-3.08,14.33,14.33,0,0,1-2-2.56,7,7,0,0,1-1-2.9,4.24,4.24,0,0,1,.07-1.47,5.19,5.19,0,0,0,0-1.36,4.16,4.16,0,0,0-1-2.33,23.44,23.44,0,0,1-1.4-2,12.12,12.12,0,0,1-1.71-3.86,4.76,4.76,0,0,1,0-1.8,7.34,7.34,0,0,1,.49-1.48,4.21,4.21,0,0,1,1.61-1.81,3.54,3.54,0,0,1,1.41-.44A1.91,1.91,0,0,1,32.76,357.27Z" style="fill:#263238"></path><path d="M55.34,374.55l-.22,0-.63-.1a22,22,0,0,1-2.26-.55,25.46,25.46,0,0,1-6.94-3.29,5.33,5.33,0,0,1-2.47-3.38,3.33,3.33,0,0,1,1.29-3.12,3.27,3.27,0,0,1,2.24-.59,2.32,2.32,0,0,1,.83.23,5.24,5.24,0,0,0-.83-.15,3.29,3.29,0,0,0-2.15.63,3.17,3.17,0,0,0-1.19,3,5.18,5.18,0,0,0,2.4,3.24,26.85,26.85,0,0,0,6.86,3.31c.93.3,1.7.49,2.24.62l.61.14Z" style="fill:#263238"></path><path d="M145.79,339.53a1.42,1.42,0,0,0-1.43.89,1.45,1.45,0,0,0,.41,1.66A1.43,1.43,0,0,0,147,340.5a1.49,1.49,0,0,0-1.41-1" style="fill:#263238"></path><path d="M152.16,346.69a14.2,14.2,0,0,1,6.4,1.29,4.42,4.42,0,0,0-.37-3.3c-.54-1-3.52-3.32-6-3" style="fill:#eb996e"></path><path d="M156.12,344a1.9,1.9,0,0,1-1.3-.3,1.82,1.82,0,0,1-.94-1,9.15,9.15,0,0,0,1,.78C155.54,343.89,156.13,344,156.12,344Z" style="fill:#263238"></path><path d="M152.33,346.69a13.52,13.52,0,0,0-5.37,1.59,3.91,3.91,0,0,0-1.75,1.56,3.1,3.1,0,0,0,0,2.41,9,9,0,0,0,1.27,2.12,5.1,5.1,0,0,0,1,1.15,1.87,1.87,0,0,0,1.44.43c1-.17,1.62-1.33,2.6-1.31.78,0,1.39.76,2.16.84a1.69,1.69,0,0,0,1.49-.76,3.62,3.62,0,0,0,.57-1.63,9.4,9.4,0,0,0-1.37-6.27A10.09,10.09,0,0,0,152.33,346.69Z" style="fill:#FF725E"></path><path d="M51.59,383.82l-.17-.1-.47-.34c-.4-.29-1-.73-1.67-1.29a62.82,62.82,0,0,1-5.18-4.66A7.89,7.89,0,0,1,42,374.24a3.57,3.57,0,0,1,.36-3.08A2.7,2.7,0,0,1,44.09,370a1.55,1.55,0,0,1,.77.06,3.17,3.17,0,0,0-.76,0,2.69,2.69,0,0,0-1.66,1.13,3.44,3.44,0,0,0-.29,2.94,7.88,7.88,0,0,0,2.1,3.11c1.91,1.92,3.76,3.55,5.12,4.69L51,383.32l.44.36Z" style="fill:#263238"></path><path d="M51,392.08a4.1,4.1,0,0,1-.55-.42c-.34-.29-.83-.71-1.38-1.27a24.92,24.92,0,0,1-3.78-4.92,20.21,20.21,0,0,1-1.52-3.06,2.78,2.78,0,0,1,.27-2.73,1.52,1.52,0,0,1,1.77-.45,1,1,0,0,1,.41.32.57.57,0,0,1,.09.15,1.37,1.37,0,0,0-2.15.07,2.63,2.63,0,0,0-.21,2.57,22,22,0,0,0,1.52,3,27.09,27.09,0,0,0,3.7,4.91c.54.58,1,1,1.33,1.32A4.69,4.69,0,0,1,51,392.08Z" style="fill:#263238"></path><path d="M142.52,360.47a11.8,11.8,0,0,0,.51-2.64,13,13,0,0,0-.3-2.67,2.31,2.31,0,0,1,.29.75,6.52,6.52,0,0,1,.22,1.93,6.87,6.87,0,0,1-.37,1.91A2.41,2.41,0,0,1,142.52,360.47Z" style="fill:#263238"></path><path d="M140.76,362.56a20.36,20.36,0,0,0,.57-2.28,23.08,23.08,0,0,0,.08-2.35,5.36,5.36,0,0,1,.12,2.38A5.12,5.12,0,0,1,140.76,362.56Z" style="fill:#263238"></path><path d="M123.87,409.55a3.46,3.46,0,0,1-.41.89,8.83,8.83,0,0,1-1.46,1.88,9.1,9.1,0,0,1-1.89,1.44,3.61,3.61,0,0,1-.89.4,16.52,16.52,0,0,0,2.64-2A16.1,16.1,0,0,0,123.87,409.55Z" style="fill:#263238"></path><path d="M125.81,409.36a2.26,2.26,0,0,1-.36.72,13,13,0,0,1-1.12,1.56A14.52,14.52,0,0,1,123,413a2.65,2.65,0,0,1-.64.49s.86-.87,1.8-2S125.76,409.33,125.81,409.36Z" style="fill:#263238"></path><path d="M68.13,391.72a29.56,29.56,0,0,0,24.05,11.13l-3,3.29c4.36,2.31,9.56,2.67,14.43,1.89a61.67,61.67,0,0,0,14.07-4.55,54,54,0,0,0,10.77-5.61,20,20,0,0,0,7.44-9.39A32,32,0,0,1,113.69,399a62.6,62.6,0,0,1-11.26-.85,6.26,6.26,0,0,1-3.49-1.22c-.92-.84-1.14-2.56-.1-3.25a39.74,39.74,0,0,1-30.36-1.79" style="fill:#e0e0e0"></path><path d="M116.51,369s1.56.2,4.33.82a57.3,57.3,0,0,1,11.41,3.75,13.91,13.91,0,0,1,3.39,2.11,8.23,8.23,0,0,1,2.44,3.55,7.51,7.51,0,0,1,.1,4.6,18,18,0,0,1-2.33,4.33,23.51,23.51,0,0,1-8,6.81,31.74,31.74,0,0,1-10.77,3.34,59.74,59.74,0,0,1-11.53.31q-1.39-.07-2.76-.18a11.1,11.1,0,0,1-2.69-.42,3,3,0,0,1-2-1.72,2,2,0,0,1,.61-2.43l.08.17a40.6,40.6,0,0,1-24.09-.16,38.88,38.88,0,0,1-6.43-2.68c-1.42-.77-2.15-1.24-2.15-1.24l.56.3c.37.2.9.53,1.62.89a40.79,40.79,0,0,0,30.43,2.71l.75-.23-.67.4a1.79,1.79,0,0,0-.53,2.2,2.79,2.79,0,0,0,1.88,1.6,11,11,0,0,0,2.65.41c.9.07,1.82.13,2.75.18a59.31,59.31,0,0,0,11.49-.32,31.59,31.59,0,0,0,10.71-3.31,23.39,23.39,0,0,0,7.91-6.74,17.64,17.64,0,0,0,2.31-4.28,7.28,7.28,0,0,0-.08-4.48,8.22,8.22,0,0,0-2.38-3.49,13.72,13.72,0,0,0-3.35-2.09,58.47,58.47,0,0,0-11.37-3.81c-1.38-.32-2.46-.54-3.19-.68Z" style="fill:#263238"></path><path d="M88.52,386l-.25,0-.69.06-2.57.16-8.46.48-4.66.23a26.46,26.46,0,0,0-3.78.3,2.7,2.7,0,0,0-1.92,1.48,2.31,2.31,0,0,0-.15.91.92.92,0,0,1,0-.24,1.72,1.72,0,0,1,.12-.7,2.71,2.71,0,0,1,2-1.59,25.16,25.16,0,0,1,3.8-.35l4.66-.25,8.47-.41,2.56-.11h1Z" style="fill:#263238"></path><path d="M148.84,353.94a1.69,1.69,0,0,0,.55-.91c.18-.65-.12-1.61,0-2.68a6.55,6.55,0,0,1,.87-2.57,4.85,4.85,0,0,1,.47-.67c.13-.15.21-.22.22-.21s-.24.35-.56,1a6.93,6.93,0,0,0-.79,2.52,23.91,23.91,0,0,1-.09,2.69C149.33,353.78,148.83,354,148.84,353.94Z" style="fill:#263238"></path><path d="M153.81,351.56s-.26-.15-.58-.5a5.31,5.31,0,0,1-1-1.58,5.59,5.59,0,0,1-.37-1.82,2,2,0,0,1,.08-.76,8.75,8.75,0,0,0,.49,2.5A8.53,8.53,0,0,0,153.81,351.56Z" style="fill:#263238"></path><g style="opacity:0.30000000000000004"><path d="M151,346.88a4.61,4.61,0,0,0-1.43,3.29,25,25,0,0,1-.28,3.68,2.27,2.27,0,0,0,1.53-2.12,5.49,5.49,0,0,1,0-1.51c.11-.4.42-.73.49-1.13.1-.59-.33-1.2-.15-1.77a.72.72,0,0,0,.07-.25.2.2,0,0,0-.11-.21c-.08,0-.18.05-.15.13"></path></g><path d="M115.76,382.72l-.46.27a10.65,10.65,0,0,1-1.33.6,15.12,15.12,0,0,1-4.7,1,15.59,15.59,0,0,1-4.78-.51,11.87,11.87,0,0,1-1.38-.47,3.45,3.45,0,0,1-.49-.22s.72.25,1.91.54a16.54,16.54,0,0,0,4.73.45,16.91,16.91,0,0,0,4.66-.93C115.07,383,115.74,382.68,115.76,382.72Z" style="fill:#263238"></path><path d="M123.71,384.93a5.56,5.56,0,0,1-.5.35,10.76,10.76,0,0,1-1.45.79,13.72,13.72,0,0,1-5.29,1.24,13.57,13.57,0,0,1-3-.24,7,7,0,0,1-2.33-.8,2.4,2.4,0,0,1-1-1.3,1.12,1.12,0,0,1,0-.6,2.73,2.73,0,0,0,.12.58,2.34,2.34,0,0,0,1,1.19,6.94,6.94,0,0,0,2.28.74,14,14,0,0,0,3,.22,14.53,14.53,0,0,0,5.24-1.16c.64-.28,1.13-.54,1.47-.73A3.73,3.73,0,0,1,123.71,384.93Z" style="fill:#263238"></path><path d="M128.49,385.93a2.24,2.24,0,0,1-.33.34,8.48,8.48,0,0,1-1,.82,12.48,12.48,0,0,1-3.87,1.83,12.31,12.31,0,0,1-4.27.41,9.89,9.89,0,0,1-1.29-.19l-.46-.12s.67.1,1.76.16a13.46,13.46,0,0,0,4.2-.46,13.64,13.64,0,0,0,3.85-1.75C128,386.36,128.46,385.9,128.49,385.93Z" style="fill:#263238"></path></g><g id="freepik--character-1--inject-2"><path d="M399.05,99.24a5.55,5.55,0,0,0-2.07-2,12.66,12.66,0,0,0-9.19-1.64,22.33,22.33,0,0,0,4.7-7.36c.92-2.78.71-6.11-1.24-8.29s-5.05-2.76-7.93-2.71A18.25,18.25,0,0,0,372.13,81a12.51,12.51,0,0,0-4.73,10.54L374.58,99a21.61,21.61,0,0,0,8.05,8c1.53.86,3.51,1.51,5,.52a3.65,3.65,0,0,0,1.08-4,10.76,10.76,0,0,0-2.43-3.71,20.22,20.22,0,0,0,9.43,3.14,3.72,3.72,0,0,0,3.22-.89A2.61,2.61,0,0,0,399.05,99.24Z" style="fill:#263238"></path><path d="M375.13,94.87c.05-.06.66.42,1.78,1a11.13,11.13,0,0,0,9.33.31c1.14-.47,1.79-.92,1.84-.85a4.63,4.63,0,0,1-1.69,1.19,10.25,10.25,0,0,1-9.66-.32A4.49,4.49,0,0,1,375.13,94.87Z" style="fill:#455a64"></path><path d="M392.78,80.34c0,.1-1.47-.07-3.79.24a19.07,19.07,0,0,0-14.41,9.92C373.47,92.56,373.1,94,373,94a3.55,3.55,0,0,1,.21-1,15.57,15.57,0,0,1,1-2.61A18.31,18.31,0,0,1,389,80.21a15.73,15.73,0,0,1,2.81,0A3.8,3.8,0,0,1,392.78,80.34Z" style="fill:#455a64"></path><path d="M375.16,97.7a6.2,6.2,0,0,0-1-2.09c-1.68-2.63-3.53-5.4-6.4-6.61a1.83,1.83,0,0,0-1.59-.1c-.76.42-.67,1.58-.21,2.32a10.76,10.76,0,0,1,1.44,2.17l3.73,5.17a3.29,3.29,0,0,0,1.44,1.42,2,2,0,0,0,2-.16A2.15,2.15,0,0,0,375.16,97.7Z" style="fill:#455a64"></path><path d="M386.61,140.07c-.36-7.22-.76-14.47-2.35-21.52s-4.45-13.93-9.21-19.36c-.72-.83-6.21-6.11-7.19-5.62-.7.35,3.46,5.64,3.33,6.41-1.22,7.37.59,15,3.8,21.74a98.16,98.16,0,0,0,11.62,18.35" style="fill:#263238"></path><path d="M389.89,203.46a20.59,20.59,0,0,0,11.52-26.4l-23.94-63c-5.89-17.13-20.77-28-37.73-21.62l-1.53.68a32.38,32.38,0,0,0-17.45,40.3c5.19,14.82,11.11,31.13,14.61,38.77,7.24,15.8,24.23,11.22,24.23,11.22s1.52,3.73,3.39,8.48a20.6,20.6,0,0,0,26.9,11.57Z" style="fill:#b78876"></path><path d="M359.6,183.42a42,42,0,0,0,18-15.29s.08,13.79-16.41,19.39Z" style="fill:#995037"></path><path d="M330.33,143.07a2.49,2.49,0,0,0,3.2,1.32A2.38,2.38,0,0,0,335,141.3a2.48,2.48,0,0,0-3.2-1.32A2.38,2.38,0,0,0,330.33,143.07Z" style="fill:#263238"></path><path d="M327.08,138.51c.41.18,1.57-1.86,4-2.94s4.78-.64,4.91-1.06c.07-.19-.45-.6-1.49-.82a6.87,6.87,0,0,0-4.09.49,6.55,6.55,0,0,0-3,2.71C326.9,137.8,326.88,138.44,327.08,138.51Z" style="fill:#263238"></path><path d="M353.52,133a2.49,2.49,0,0,0,3.21,1.32,2.37,2.37,0,0,0,1.43-3.08,2.49,2.49,0,0,0-3.2-1.33A2.39,2.39,0,0,0,353.52,133Z" style="fill:#263238"></path><path d="M351.44,128.9c.41.17,1.57-1.87,4-2.94s4.78-.65,4.91-1.07c.07-.19-.45-.59-1.49-.81a6.77,6.77,0,0,0-4.09.48,6.55,6.55,0,0,0-3,2.71C351.26,128.18,351.24,128.83,351.44,128.9Z" style="fill:#263238"></path><path d="M351,151.55c-.06-.15-1.69.26-4.29,1-.65.21-1.3.35-1.59,0a3.45,3.45,0,0,1-.4-2c-.09-1.77-.17-3.63-.26-5.57-.44-7.9-1-14.28-1.37-14.26s-.22,6.44.22,14.34c.12,1.94.23,3.79.35,5.56a4,4,0,0,0,.76,2.59,1.74,1.74,0,0,0,1.43.46,4.67,4.67,0,0,0,1.12-.33C349.51,152.36,351.05,151.69,351,151.55Z" style="fill:#263238"></path><path d="M358.93,150.05c-.41.15.76,2.81-.67,5.69s-4.39,3.85-4.24,4.23c0,.18.85.23,2.06-.26a7.22,7.22,0,0,0,3.61-3.38,6.31,6.31,0,0,0,.39-4.7C359.69,150.48,359.11,150,358.93,150.05Z" style="fill:#263238"></path><path d="M347.18,118.93c.53.56,2.83-.84,5.85-1.76s5.68-1.18,5.8-1.94c0-.36-.64-.81-1.86-1a10,10,0,0,0-4.76.38A10.28,10.28,0,0,0,348.1,117C347.23,117.9,346.93,118.66,347.18,118.93Z" style="fill:#263238"></path><path d="M324.49,130c.67.36,2.1-1,4.11-1.88s3.9-1.29,4-2c.05-.36-.47-.79-1.45-1a6.55,6.55,0,0,0-6.57,3.16C324.16,129.09,324.18,129.76,324.49,130Z" style="fill:#263238"></path><path d="M381.39,126.4c.22-.24,9.49-8.07,14,2.95s-7.52,13.23-7.66,12.92S381.39,126.4,381.39,126.4Z" style="fill:#b78876"></path><path d="M389.36,136.73s.24.06.63.07a2.06,2.06,0,0,0,1.45-.55c1-.9,1.22-3.14.46-5.15a6.74,6.74,0,0,0-1.65-2.53,2.4,2.4,0,0,0-2-.89,1.05,1.05,0,0,0-.92,1c0,.37.14.56.09.6s-.31-.09-.41-.58a1.37,1.37,0,0,1,.15-.87,1.6,1.6,0,0,1,.95-.71,2.92,2.92,0,0,1,2.7.9,6.94,6.94,0,0,1,1.91,2.8c.83,2.25.54,4.79-.87,5.89a2.18,2.18,0,0,1-1.87.42C389.49,137,389.33,136.77,389.36,136.73Z" style="fill:#995037"></path><path d="M320.67,112.28c-2.18-.28.9-8.2,4.51-11.93,5.45-5.65,14.87-11.52,21.68-12.2,8.21-.83,15.79.42,22.15,5.67s10.84,12.53,13.66,20.28c.86,2.36,1.58,4.9,1.11,7.37-.58,3-2.93,5.76-1.47,9.08a5,5,0,0,1,.19,3.83c-1.17,3-4.45,1.91-6.39.34-4.14-3.37-6.46-8.44-8.63-13.31-1.55-3.47-3.11-7-3.46-10.8-.19-2,0-4.14-.31-6.18a6,6,0,0,0-4.22-5.77,12.41,12.41,0,0,0-12.3,2.35c-5.36,4.66-14.69,12.16-18.3,11.14-5.2-1.46-6.94-3.06-6.94-3.06Z" style="fill:#263238"></path><path d="M345.69,86.88c-6.88.37-13.75,3.21-18.27,8.41-2.4,2.76-4.14,6.34-3.77,10s3.37,7.12,7,7.16l.27,0c5.35-.28,8.17-2.13,12.23-5.61,3.41-2.94,6-6.77,9.4-9.69a24.17,24.17,0,0,1,13-5.58A39.47,39.47,0,0,0,345.69,86.88Z" style="fill:#263238"></path><path d="M363.67,90.47s-.58-.06-1.62,0a11.91,11.91,0,0,0-4.25.9,16.82,16.82,0,0,0-5.36,3.55,46.55,46.55,0,0,0-5.13,6.1,54.5,54.5,0,0,1-5.1,6.24,17.83,17.83,0,0,1-5.37,3.84,11.83,11.83,0,0,1-4.31,1.1,7.48,7.48,0,0,1-1.21,0c-.27,0-.42,0-.41-.07s.58,0,1.61-.11a13,13,0,0,0,4.17-1.23,18.54,18.54,0,0,0,5.18-3.84,60,60,0,0,0,5-6.22,43.09,43.09,0,0,1,5.22-6.14A16.72,16.72,0,0,1,357.67,91a11.3,11.3,0,0,1,4.38-.75,6.23,6.23,0,0,1,1.21.13A1.15,1.15,0,0,1,363.67,90.47Z" style="fill:#455a64"></path><path d="M357.56,88.7a13.52,13.52,0,0,0-5.3,1.1,17.21,17.21,0,0,0-4.86,3.31,32.79,32.79,0,0,0-4.54,5.66c-1.44,2.15-2.74,4.27-4.07,6.1a28.41,28.41,0,0,1-4,4.53,16.27,16.27,0,0,1-3.32,2.34,10.71,10.71,0,0,1-1,.45,1.8,1.8,0,0,1-.37.12,22.25,22.25,0,0,0,4.44-3.18,30.46,30.46,0,0,0,3.82-4.54c1.3-1.82,2.58-3.94,4-6.11a32.67,32.67,0,0,1,4.65-5.72,17,17,0,0,1,5-3.3,11.48,11.48,0,0,1,4-.88,6.54,6.54,0,0,1,1.1,0C357.44,88.65,357.57,88.68,357.56,88.7Z" style="fill:#455a64"></path><path d="M374.65,98.22a3.18,3.18,0,0,1,.16.92,19.59,19.59,0,0,1,.09,2.53,25.59,25.59,0,0,1-5.69,15.43A19.76,19.76,0,0,1,367.5,119c-.44.4-.69.62-.72.59s.87-1,2.14-2.68a28.35,28.35,0,0,0,5.61-15.23C374.67,99.54,374.56,98.23,374.65,98.22Z" style="fill:#455a64"></path><path d="M379.12,105.48a2.35,2.35,0,0,1,.28.82,9,9,0,0,1,.19,2.36,13.75,13.75,0,0,1-2.74,7.25,27.66,27.66,0,0,1-5.52,5.45,17.73,17.73,0,0,1-2.62,1.84,21.76,21.76,0,0,1,2.39-2.12,33,33,0,0,0,5.33-5.48,14.3,14.3,0,0,0,2.79-7A18.73,18.73,0,0,0,379.12,105.48Z" style="fill:#455a64"></path><path d="M330.31,95.44a17.94,17.94,0,0,1-.85,2.51,22.48,22.48,0,0,0-1.38,6.14,11.45,11.45,0,0,0,1.27,6,18.88,18.88,0,0,0,1.51,2.13s-.24-.11-.58-.42a7.19,7.19,0,0,1-1.25-1.52,10.94,10.94,0,0,1-1.47-6.26,19.4,19.4,0,0,1,1.56-6.24A10.67,10.67,0,0,1,330.31,95.44Z" style="fill:#455a64"></path><path d="M324.72,103.76a9.71,9.71,0,0,1,.36,1.62,10.87,10.87,0,0,0,4.33,6.34,12,12,0,0,1,1.38.92,3.47,3.47,0,0,1-1.57-.61,9.2,9.2,0,0,1-3-2.79,9.38,9.38,0,0,1-1.52-3.79A3.8,3.8,0,0,1,324.72,103.76Z" style="fill:#455a64"></path><path d="M524.5,323.6s21.74,63,21.24,72.34-2.5,23.78-7.74,23.56-49.89-3.88-49.89-3.88l-27.65-7.34-5.72-50.36Z" style="fill:#FF725E"></path><path d="M519,326.28s20.82,60.28,20.33,69.66-1.52,23.23-6.76,23-44.5-3.34-44.5-3.34l-27.65-7.34-5.72-50.36Z" style="opacity:0.4"></path><path d="M527.88,334.55a8.24,8.24,0,0,1-2.69,1.13,8.62,8.62,0,0,1-2.86.64,16.1,16.1,0,0,1,5.55-1.77Z" style="fill:#fafafa"></path><path d="M533.61,351.17a8.5,8.5,0,0,1-2.69,1.13,8.17,8.17,0,0,1-2.86.63,8.77,8.77,0,0,1,2.7-1.13A8.13,8.13,0,0,1,533.61,351.17Z" style="fill:#fafafa"></path><path d="M541.13,375.61a8.36,8.36,0,0,1-2.7,1.13,8.58,8.58,0,0,1-2.85.64,8,8,0,0,1,2.69-1.13A8.37,8.37,0,0,1,541.13,375.61Z" style="fill:#fafafa"></path><path d="M545.75,393a10.88,10.88,0,0,1-3.35.37,10.38,10.38,0,0,1-3.35-.15,11.08,11.08,0,0,1,3.34-.37A11.23,11.23,0,0,1,545.75,393Z" style="fill:#fafafa"></path><path d="M544.3,409a20.08,20.08,0,0,1-6.35-.75,10.14,10.14,0,0,1,3.21.12A9.91,9.91,0,0,1,544.3,409Z" style="fill:#fafafa"></path><path d="M523.12,329.71a.72.72,0,0,1,.11.21l.29.65c.23.58.61,1.42,1,2.53.86,2.21,2,5.44,3.36,9.45,2.66,8,6,19.24,9.29,31.74,1.62,6.26,3,12.26,4,17.77s1.44,10.62.79,14.85a22.93,22.93,0,0,1-3.42,9.4,12.51,12.51,0,0,1-2.38,2.81,1,1,0,0,1,.15-.2l.46-.53a19.8,19.8,0,0,0,1.6-2.19,23.24,23.24,0,0,0,3.22-9.34c.6-4.18.17-9.23-.89-14.71s-2.43-11.48-4-17.73c-3.25-12.49-6.57-23.7-9.14-31.76-1.3-4-2.4-7.26-3.2-9.49-.38-1.12-.73-2-.93-2.56l-.24-.67A.7.7,0,0,1,523.12,329.71Z" style="fill:#fafafa"></path><path d="M347.71,236.59l-12.44,50.2-60.33-8.89L273,302.17l54.64,14.72a27.4,27.4,0,0,0,28.29-3.82h0a27.37,27.37,0,0,0,9.4-15l12.87-54.67Z" style="fill:#b78876"></path><path d="M464.31,374.49l49.8-8.21,10.53,61.9c-6,.64-23.29-29.36-23.29-29.36l-31.69,6.57Z" style="fill:#455a64"></path><g style="opacity:0.6000000000000001"><path d="M495.41,380.13a2.57,2.57,0,0,1,2.59-2.24,2.48,2.48,0,0,1,2.24,2.55,2.7,2.7,0,0,1-2.75,2.36c-1.25-.22-2.44-1.71-2-2.91" style="fill:#fff"></path></g><g style="opacity:0.6000000000000001"><path d="M514.11,366.28l-5,1,12,59s1.67,2.55,3.55,1.91Z" style="fill:#fff"></path></g><path d="M501.2,399.88c.3-.07.18-1.6.9-3.25s1.86-2.66,1.69-2.92-1.84.49-2.67,2.5S500.94,400,501.2,399.88Z" style="fill:#263238"></path><path d="M505,405.91c.31,0,.6-1.38,1.7-2.62s2.41-1.77,2.35-2.07-1.81-.2-3.15,1.37S504.7,406,505,405.91Z" style="fill:#263238"></path><path d="M513.39,408.28c0-.29-1.56-.45-3.09.61s-1.94,2.58-1.66,2.66,1-.94,2.27-1.79S513.41,408.58,513.39,408.28Z" style="fill:#263238"></path><path d="M493.82,400.57c.25-.17-.4-1.49-.58-3.22s.14-3.15-.15-3.26-1.14,1.35-.91,3.38S493.6,400.76,493.82,400.57Z" style="fill:#263238"></path><path d="M486.22,400.35c.13,0,.11-1.25-.54-3.1a14.27,14.27,0,0,0-1.55-3.07,14.07,14.07,0,0,0-1.25-1.62,3.79,3.79,0,0,0-.89-.82,1.34,1.34,0,0,0-1.63.14,1.67,1.67,0,0,0-.46,1.44,4.14,4.14,0,0,0,.35,1.14,12.44,12.44,0,0,0,1,1.81,11.08,11.08,0,0,0,2.37,2.54c1.57,1.21,2.78,1.51,2.82,1.4s-1-.7-2.33-2a12.49,12.49,0,0,1-2-2.5,11.6,11.6,0,0,1-.85-1.69c-.29-.62-.39-1.18-.12-1.4.1-.08.14-.09.36,0a3.15,3.15,0,0,1,.65.6,14.81,14.81,0,0,1,1.21,1.48,17.73,17.73,0,0,1,1.66,2.8A23.13,23.13,0,0,0,486.22,400.35Z" style="fill:#263238"></path><path d="M486.59,399.88c0-.12-1.16-.53-3.14-.31a10.49,10.49,0,0,0-3.32,1,11.12,11.12,0,0,0-1.75,1.11,2.62,2.62,0,0,0-1.23,2.25,1.48,1.48,0,0,0,1.09,1.14,4,4,0,0,0,1.19.13A7.2,7.2,0,0,0,484.5,403c1.39-1.49,1.54-2.81,1.43-2.82s-.57,1.08-1.95,2.27a7.33,7.33,0,0,1-2.75,1.47,6.22,6.22,0,0,1-1.8.25c-.68,0-1.25-.14-1.22-.4s.35-.91.83-1.25a9.48,9.48,0,0,1,1.55-1.06,10.88,10.88,0,0,1,3-1.12C485.38,399.92,486.57,400.05,486.59,399.88Z" style="fill:#263238"></path><path d="M420.29,352.23S353.43,387.39,340,403c-6.82,7.93-3.54,34.24,11.21,42.5s30.76,0,40.47-2.36S477.55,413,477.55,413l-10.63-60.8Z" style="fill:#263238"></path><path d="M411.37,397.64a10.65,10.65,0,0,1-1.71,1.39c-.58.41-1.33.85-2.18,1.38s-1.89,1-3.05,1.56c-2.29,1.09-5.11,2.16-8.25,3.3a86.56,86.56,0,0,0-10,4.09,28,28,0,0,0-7,4.95,22.22,22.22,0,0,0-4.31,6.11,74.18,74.18,0,0,0-3.49,9.19l-.21.55,0-.57A6.41,6.41,0,0,1,371,428a6.11,6.11,0,0,1,.34,1.54l-.26,0a52.29,52.29,0,0,1,3.16-9.41,21.84,21.84,0,0,1,4.34-6.36,27.63,27.63,0,0,1,7.23-5.14,81,81,0,0,1,10.1-4.08c3.15-1.09,6-2.1,8.26-3.11A62.76,62.76,0,0,0,411.37,397.64Z" style="fill:#455a64"></path><path d="M379.4,413.63c.1.25-3.65,1.37-7.16,4.47s-5.17,6.62-5.39,6.49,1.14-3.9,4.85-7.1S379.4,413.43,379.4,413.63Z" style="fill:#455a64"></path><path d="M461.6,384.89l37.56,33.72-41.71,46.94c-4.24-4.26,8.33-36.54,8.33-36.54l-24.95-20.62Z" style="fill:#455a64"></path><g style="opacity:0.6000000000000001"><path d="M476.65,412.68a2.57,2.57,0,0,1,3.36.62,2.47,2.47,0,0,1-.58,3.34,2.7,2.7,0,0,1-3.56-.67c-.61-1.1-.19-3,1-3.41" style="fill:#fff"></path></g><g style="opacity:0.6000000000000001"><path d="M499.16,418.61l-3.92-3.25-38.52,46.22s-1,2.9.73,4Z" style="fill:#fff"></path></g><path d="M464.87,429.56c.24.19,1.36-.86,3.1-1.34s3.23-.21,3.33-.5-1.53-1.13-3.63-.52S464.62,429.42,464.87,429.56Z" style="fill:#263238"></path><path d="M462.53,436.29c.18.25,1.45-.4,3.11-.32s2.89.77,3.08.54-1-1.54-3-1.6S462.32,436.09,462.53,436.29Z" style="fill:#263238"></path><path d="M465.94,444.32c.23-.16-.63-1.5-2.41-2s-3.23.1-3.12.37,1.36.2,2.82.65S465.72,444.53,465.94,444.32Z" style="fill:#263238"></path><path d="M459.7,424.23c.3.09.92-1.25,2.16-2.46s2.54-1.87,2.45-2.16-1.77-.05-3.21,1.4S459.42,424.18,459.7,424.23Z" style="fill:#263238"></path><path d="M455.13,418.16c.09.09,1-.69,2.07-2.36a13.66,13.66,0,0,0,1.43-3.13,14.47,14.47,0,0,0,.49-2,3.76,3.76,0,0,0,.07-1.2,1.33,1.33,0,0,0-1.12-1.19,1.69,1.69,0,0,0-1.42.54,4.05,4.05,0,0,0-.66,1,11.43,11.43,0,0,0-.8,1.91,11.23,11.23,0,0,0-.5,3.43c0,2,.57,3.12.68,3.08s-.08-1.21.07-3.05a12.59,12.59,0,0,1,.69-3.15,10.9,10.9,0,0,1,.78-1.72c.31-.61.68-1,1-1,.12,0,.16,0,.21.29a2.82,2.82,0,0,1-.06.88,15.07,15.07,0,0,1-.39,1.87,17.31,17.31,0,0,1-1.15,3.05C455.72,417.11,455,418.05,455.13,418.16Z" style="fill:#263238"></path><path d="M455.72,418.15c.11,0-.31-1.23-1.72-2.63a10.1,10.1,0,0,0-2.86-2,10.26,10.26,0,0,0-2-.67,2.6,2.6,0,0,0-2.52.45,1.45,1.45,0,0,0-.21,1.56,4.09,4.09,0,0,0,.65,1,7,7,0,0,0,1.58,1.41,7.15,7.15,0,0,0,3.32,1.15c2,.16,3.15-.55,3.09-.64s-1.2.23-3-.11a7.1,7.1,0,0,1-2.87-1.22,6.22,6.22,0,0,1-1.32-1.25c-.43-.51-.67-1.06-.45-1.2a1.79,1.79,0,0,1,1.5-.14,12.06,12.06,0,0,1,1.79.55,11.1,11.1,0,0,1,2.75,1.63C454.94,417.24,455.58,418.25,455.72,418.15Z" style="fill:#263238"></path><path d="M384.68,304.57c-7.73-.68-15.92.19-22.78,3.8-3.82,2-7.35,5.07-9.13,8.92-5.75,12.38-7.44,31.15,2.77,41.69,8.62,8.88,87.92,61.06,87.92,61.06l32.46-26.38-20.38-18.91s30.82,4.56,42.62-.16,29.79-20.25,23.75-39l-4.45-5.37a45.57,45.57,0,0,0-30.94-16.29Z" style="fill:#263238"></path><path d="M475.83,393.71a3.8,3.8,0,0,1-.58.55l-1.74,1.48-6.63,5.49-23.3,19-.22.18-.23-.16-20.34-13.81-38.7-26.5-11.67-8.11-3.15-2.24a7.92,7.92,0,0,1-1.07-.83,9.67,9.67,0,0,1,1.16.69l3.24,2.11,11.82,7.9,38.83,26.3,20.31,13.86-.46,0,23.48-18.75,6.77-5.32,1.83-1.39A3.64,3.64,0,0,1,475.83,393.71Z" style="fill:#455a64"></path><path d="M374.31,332.22a7.09,7.09,0,0,1,1.2-.4c.79-.24,2-.56,3.52-.9a49.89,49.89,0,0,1,13.29-1.15A36.29,36.29,0,0,1,411,336c6.3,4.11,12,10.13,18.07,16.13s12.38,11.28,17.94,16.2l14.89,13L472,390.09l2.72,2.39a7.44,7.44,0,0,1,.92.87,6.84,6.84,0,0,1-1-.74l-2.83-2.27c-2.43-2-5.93-4.91-10.23-8.54s-9.39-8-15-12.86-11.81-10.21-18-16.19-11.74-12-17.92-16.08a36.14,36.14,0,0,0-18.29-6.32,52.86,52.86,0,0,0-13.19.88c-1.54.29-2.73.56-3.54.75A7.48,7.48,0,0,1,374.31,332.22Z" style="fill:#455a64"></path><path d="M410.1,336.33c-.2.18-3.33-3.87-8.45-7.39s-10-5.08-9.88-5.33a10.6,10.6,0,0,1,3.22.88,33.66,33.66,0,0,1,13.16,9.13A10.55,10.55,0,0,1,410.1,336.33Z" style="fill:#455a64"></path><path d="M380.64,267.24c-.13.06-4.4-8.9-9.54-20S361.9,227.06,362,227s4.4,8.9,9.54,20S380.77,267.18,380.64,267.24Z" style="fill:#263238"></path><path d="M426.9,168a2.67,2.67,0,0,1-.61-.23c-.2-.08-.44-.21-.74-.31l-1-.33a14,14,0,0,0-6.8-.07,18.11,18.11,0,0,0-8.75,5,23.88,23.88,0,0,0-5.68,11,47.43,47.43,0,0,0-1.13,12.46c.1,3.87.4,7.36.56,10.29s.23,5.31.19,7c0,.82-.05,1.46-.08,1.89a4.13,4.13,0,0,1-.07.65,3,3,0,0,1,0-.66v-1.88c0-1.64-.14-4-.35-6.94s-.55-6.4-.68-10.29a46.61,46.61,0,0,1,1.11-12.61,24.05,24.05,0,0,1,5.84-11.17,18.18,18.18,0,0,1,9-5,13.74,13.74,0,0,1,6.94.24l1,.38c.3.12.53.26.72.35A3.93,3.93,0,0,1,426.9,168Z" style="fill:#263238"></path><path d="M353.1,206.5s-2.28,1-9.61,33.29l-3.78,18.91,35.52,6.55.92-7.16Z" style="fill:#455a64"></path><path d="M486.51,234.2c-20.94-56.21-39.84-66.43-50.13-70.47s-31.44.58-39.53,1.34c-7.27,18.21-16.79,26.9-32.14,30.24-3.24.7-8.09,6.36-11.61,11.19l47.51,106.36s55.56,2.57,72.83,3.67,27.63,13.15,38.56,17.78c8.85,3.75,11.12-6.47,11.12-6.47S507.45,290.41,486.51,234.2Z" style="fill:#455a64"></path><path d="M515.09,320.66c-.06,0-.66-1-2.1-2.44a23,23,0,0,0-7.22-4.88,37.52,37.52,0,0,0-12.63-2.79c-4.9-.33-10.34-.22-16-.32-11.41-.1-21.73-.25-29.2-.39l-8.84-.22-2.41-.1a3.12,3.12,0,0,1-.84-.09,3.49,3.49,0,0,1,.84-.08l2.41-.05,8.85-.05c7.47,0,17.79.05,29.2.16,5.69.1,11.12,0,16.08.38a37,37,0,0,1,12.82,3,21.91,21.91,0,0,1,7.21,5.19,16.56,16.56,0,0,1,1.47,1.92A2.85,2.85,0,0,1,515.09,320.66Z" style="fill:#263238"></path><polygon points="402.76 312.95 369.26 242.63 408.55 221.78 477.64 321.03 402.76 312.95" style="fill:#263238"></polygon><path d="M427.92,308.22c22.34-8.73,48.2-7.71,72.22-1.94,5.57,1.33,11.16,3,15.88,6.25s8.52,8.21,9.13,13.9c.36,3.37-1.47,7.69-4.85,7.46a7.4,7.4,0,0,1-3.44-1.52c-26-17.18-54.11-21.07-88.94-24.15" style="fill:#FF725E"></path><path d="M465.31,301.81c.08.14-2.63,1.69-5.54,4.17s-4.9,4.88-5,4.78a6.93,6.93,0,0,1,1.19-1.67,29.51,29.51,0,0,1,7.53-6.38A6.55,6.55,0,0,1,465.31,301.81Z" style="fill:#fafafa"></path><path d="M484.38,303.08a14.82,14.82,0,0,1-2,1.55c-1.27.92-3,2.2-4.88,3.68s-3.52,2.88-4.71,3.9a14.38,14.38,0,0,1-2,1.6,10.7,10.7,0,0,1,1.73-1.87,58.68,58.68,0,0,1,4.63-4,59.51,59.51,0,0,1,5-3.57A10.39,10.39,0,0,1,484.38,303.08Z" style="fill:#fafafa"></path><path d="M502.53,306.93a10,10,0,0,1-1.2,2.1c-.81,1.25-2,2.94-3.38,4.74s-2.74,3.35-3.76,4.44a9.35,9.35,0,0,1-1.74,1.67,13.48,13.48,0,0,1,1.47-1.91c.94-1.15,2.23-2.74,3.62-4.52s2.61-3.44,3.49-4.63A11.85,11.85,0,0,1,502.53,306.93Z" style="fill:#fafafa"></path><path d="M516.92,313.3a8.18,8.18,0,0,1,0,2.48,21.92,21.92,0,0,1-4.18,11.14,8.2,8.2,0,0,1-1.66,1.84,37.37,37.37,0,0,0,4-7.3A37.84,37.84,0,0,0,516.92,313.3Z" style="fill:#fafafa"></path><path d="M524.64,329.71a2.49,2.49,0,0,1-.17-.2l-.45-.62a29,29,0,0,0-1.88-2.25,28.66,28.66,0,0,0-8.81-6.12c-8.26-3.88-20.34-7.84-34.06-10.36a184.48,184.48,0,0,0-19.46-2.72,137.16,137.16,0,0,0-16-.41c-4.57.17-8.25.57-10.78.89-1.27.16-2.25.32-2.92.41l-.76.1a.74.74,0,0,1-.26,0l.25-.07.75-.14c.67-.12,1.64-.32,2.91-.51a107.19,107.19,0,0,1,10.79-1.06,131.77,131.77,0,0,1,16.09.3,179.62,179.62,0,0,1,19.52,2.69c13.76,2.52,25.86,6.55,34.13,10.54a28.15,28.15,0,0,1,8.79,6.31A18,18,0,0,1,524.64,329.71Z" style="fill:#fafafa"></path><path d="M405.41,163.64s-28.56,24.7-5.17,67.44l5.54-2.62s-7.23-13.24-7.63-28.32.66-30.62,19.13-37.68C417.28,162.46,409.28,160.85,405.41,163.64Z" style="fill:#263238"></path><path d="M371.33,243.57l4.82-2.75s-18.79-35.28-15.31-43.2l2-1.5s-5.43.44-5.57,5.11S362,227,371.33,243.57Z" style="fill:#263238"></path><path d="M453.63,311h-.26l-.77-.07-2.93-.3-10.77-1.08c-9.1-.87-21.69-1.9-35.6-3-7-.52-13.59-1.11-19.61-1.53a59.51,59.51,0,0,0-8.55,0,37.68,37.68,0,0,0-7.31,1.31,28,28,0,0,0-9.7,4.54,16.9,16.9,0,0,0-2.79,2.78,1.1,1.1,0,0,1,.13-.22l.44-.63A13.91,13.91,0,0,1,358,310.7a27.43,27.43,0,0,1,9.73-4.73,37.27,37.27,0,0,1,7.37-1.39,60.09,60.09,0,0,1,8.61,0c6.05.4,12.66,1,19.63,1.49,13.91,1.08,26.5,2.17,35.6,3.14,4.54.47,8.22.92,10.76,1.24l2.92.4.75.11Z" style="fill:#455a64"></path><path d="M249.2,296s8.83,4,12,6.89c3.41,3.13,8.72,4,12.9,3.12a37.38,37.38,0,0,0,6.9-2.17l12.33,4.68a15.81,15.81,0,0,0,8.44-14.23,17.63,17.63,0,0,0-.9-5.9c-.83-2.16-1.12-3.36-4.82-5.63l-17.31-3.64s-21.92-10.6-26.69-10.3c0,0-6.23,1-8.29,1.62-.77.24-4.84,5.27-2.36,9.71,0,0-4.21,1.27-3.39,4.24l.43,1.34s-3.25,1.92-2.63,3.57,8,11.15,12,11.18,2.62-3.78,1.33-5" style="fill:#b78876"></path><path d="M245.76,276.1a10.09,10.09,0,0,1,1,.9c.65.6,1.59,1.45,2.8,2.44.6.5,1.28,1,2,1.57s1.57,1.09,2.38,1.76a6.21,6.21,0,0,1,2,2.65,3.53,3.53,0,0,1-.58,3.51,2.76,2.76,0,0,1-1.7.8,4.79,4.79,0,0,1-1.78-.19,14.5,14.5,0,0,1-3-1.38,29.19,29.19,0,0,1-4.46-3.28c-1.19-1-2.09-1.93-2.71-2.55a8,8,0,0,1-.93-1,8.11,8.11,0,0,1,1,.88c.66.58,1.59,1.44,2.8,2.44a30.59,30.59,0,0,0,4.46,3.16,14,14,0,0,0,2.91,1.32,4.25,4.25,0,0,0,1.62.17,2.28,2.28,0,0,0,1.44-.67,3.14,3.14,0,0,0,.49-3.08,5.82,5.82,0,0,0-1.87-2.47c-.78-.66-1.6-1.21-2.33-1.78s-1.4-1.11-2-1.63c-1.19-1-2.1-1.91-2.72-2.55A6.9,6.9,0,0,1,245.76,276.1Z" style="fill:#995037"></path><path d="M249.39,269.5a10.92,10.92,0,0,1,1,.9c.64.6,1.57,1.45,2.76,2.46s2.65,2.16,4.33,3.35a7.18,7.18,0,0,1,2.39,2.28,2.62,2.62,0,0,1,.25,1.81,3.28,3.28,0,0,1-.93,1.61,4.4,4.4,0,0,1-3.37,1.14,7.06,7.06,0,0,1-3.16-1,31.77,31.77,0,0,1-4.35-3.39l-2.8-2.43a8.49,8.49,0,0,1-1-.93,6.8,6.8,0,0,1,1.09.8l2.88,2.33a34.77,34.77,0,0,0,4.36,3.27,6.83,6.83,0,0,0,3,.9,4,4,0,0,0,3-1,2.46,2.46,0,0,0,.61-2.92,7,7,0,0,0-2.25-2.16,54.17,54.17,0,0,1-4.3-3.44c-1.17-1-2.07-1.93-2.68-2.57A7.13,7.13,0,0,1,249.39,269.5Z" style="fill:#995037"></path><path d="M253.23,273.33a11.86,11.86,0,0,1,.33-2.1,13.81,13.81,0,0,1,.27-2.12,5.11,5.11,0,0,1-.6,4.22Z" style="fill:#995037"></path><path d="M287,287.12l-7.25-6.71s-19.36-20.57-20-20.13-1.9-.14-2.78,2.87,10.66,14.38,10.7,15.56-2.72,6,.95,11.64,7.34,7.23,7.34,7.23" style="fill:#b78876"></path><path d="M276,297.58a1,1,0,0,1-.21-.08c-.13-.06-.32-.15-.57-.29a14.5,14.5,0,0,1-2-1.42,20.54,20.54,0,0,1-2.74-2.77,21,21,0,0,1-2.86-4.3,11.08,11.08,0,0,1-.92-6.17,24.42,24.42,0,0,1,.76-3.4,2.11,2.11,0,0,0,.07-.4.71.71,0,0,0-.14-.32,8.72,8.72,0,0,0-.51-.73c-.38-.48-.77-.95-1.18-1.44-1.62-1.92-3.38-3.9-5.08-6.06a41.63,41.63,0,0,1-2.48-3.39,14,14,0,0,1-1-1.91,4.76,4.76,0,0,1-.33-1.09,2.09,2.09,0,0,1,0-.61,4.41,4.41,0,0,1,.16-.55,4,4,0,0,1,1.19-1.92,2.62,2.62,0,0,1,1.06-.46,1.51,1.51,0,0,0,.44-.15s0,0,.11-.05a.41.41,0,0,1,.19,0,1.16,1.16,0,0,1,.16.08,2.49,2.49,0,0,1,.24.17c1.13.91,2.1,1.9,3.09,2.85,2,1.93,3.8,3.82,5.56,5.63,3.5,3.63,6.62,6.93,9.23,9.71.65.68,1.26,1.37,1.86,2s1.22,1.14,1.77,1.66l2.82,2.66,1.78,1.69.45.45c.1.11.15.16.14.17l-.17-.13-.48-.42-1.83-1.64-2.88-2.61-1.79-1.64c-.63-.6-1.23-1.27-1.89-1.95l-9.3-9.64c-1.76-1.8-3.61-3.69-5.56-5.61-1-.94-2-1.94-3.06-2.81l-.2-.14-.07,0s0,0,0,0,0-.06,0-.1a.08.08,0,0,0,0,0c.2.29.05.09.09.15l0,0a2,2,0,0,1-.56.2,2.21,2.21,0,0,0-.9.38,3.59,3.59,0,0,0-1,1.72,2,2,0,0,0-.16,1,4.42,4.42,0,0,0,.3,1,12.75,12.75,0,0,0,1,1.85,39.52,39.52,0,0,0,2.44,3.36c1.69,2.15,3.43,4.14,5.06,6.07.4.48.8,1,1.17,1.46a6.93,6.93,0,0,1,.54.76,1.07,1.07,0,0,1,.19.52,2.29,2.29,0,0,1-.08.48,26.9,26.9,0,0,0-.78,3.36,10.77,10.77,0,0,0,.85,6,20.94,20.94,0,0,0,2.76,4.28,22.11,22.11,0,0,0,2.67,2.79,16.09,16.09,0,0,0,1.95,1.47l.54.33Z" style="fill:#995037"></path><path d="M249.29,288.25a3.09,3.09,0,0,1,.81.63,9.38,9.38,0,0,1,1.72,2.19,8.28,8.28,0,0,1,.8,1.77,2.94,2.94,0,0,1-.11,2.28,2.39,2.39,0,0,1-2.26,1.08,4.6,4.6,0,0,1-2.46-1.07,49.16,49.16,0,0,1-6.63-6.31,26.36,26.36,0,0,1-1.69-2.19,4.65,4.65,0,0,1-.53-.87,5.38,5.38,0,0,1,.66.77c.41.5,1,1.23,1.79,2.09a58.88,58.88,0,0,0,6.66,6.16,4.21,4.21,0,0,0,2.22,1,2,2,0,0,0,1.9-.86,2.61,2.61,0,0,0,.11-2,9.46,9.46,0,0,0-.72-1.73A14.82,14.82,0,0,0,249.29,288.25Z" style="fill:#995037"></path><path d="M274.08,347.58c.25-1.45-1.94-3.64-1.21-5.95s7.39-21.39,7.39-21.39l-6-1.09-7.86,26s-3.65,5.59-3.28,11.79,1.94,8,2.43,5,1.58-10.81,1.58-10.81.34,13.73,2,13,1.7-13.61,1.7-13.61,2.78,14.22,3.83,11.18S273.84,349,274.08,347.58Z" style="fill:#eb996e"></path><path d="M299.3,347.8c.24-1.45-1.95-3.64-1.22-5.95s7.39-21.39,7.39-21.39l-5.56-.86-8.27,25.77S288,351,288.36,357.16s1.94,8,2.43,5,1.58-10.81,1.58-10.81.34,13.73,2.05,13,1.7-13.61,1.7-13.61,2.78,14.22,3.83,11.18S299.05,349.26,299.3,347.8Z" style="fill:#eb996e"></path><path d="M279.47,215.53a7.19,7.19,0,0,0,3.58-3.14,4.53,4.53,0,0,0-.19-4.61c-.43-.61-1.08-1.13-1.24-1.86-.09-.39,0-.81-.11-1.2s-.34-.82-.75-.83-.57.21-.87.27c-.59.13-1.14-.41-1.35-1s-.23-1.2-.46-1.77a1.31,1.31,0,0,0-1.4-.91,1.43,1.43,0,0,0-.79,1.46,5,5,0,0,1-.05,1.77c-.21.56-1,.95-1.4.52a1,1,0,0,1-.22-.76c0-.95.48-1.83.55-2.77s-.54-2.08-1.47-2a1.48,1.48,0,0,0-1.16,1,4.44,4.44,0,0,0-.25,1.54,34,34,0,0,0-.71-4.37c-.15-.64-.48-1.41-1.13-1.43s-1.05.76-1,1.39a9.41,9.41,0,0,0,.67,1.81,1.5,1.5,0,0,1-.35,1.75c-.66.42-1.56-.15-1.89-.86s-.34-1.53-.65-2.25-1.17-1.33-1.86-.95a1.31,1.31,0,0,0-.53,1.39,4.44,4.44,0,0,0,.65,1.44c.21.37.39.86.12,1.2a.77.77,0,0,1-1.07,0,2.39,2.39,0,0,1-.57-1,3.43,3.43,0,0,0-1-1.62,1.26,1.26,0,0,0-1.73.1c-.4.56-.09,1.32.16,1.95s.38,1.51-.2,1.87c-.78.48-1.63-.57-2.53-.72a1.33,1.33,0,0,0-.51,2.61c-.57-.33-1.33.28-1.39.94a2.76,2.76,0,0,0,.73,1.81,10.49,10.49,0,0,0,3.15,2.86,5.72,5.72,0,0,0,4.14.61" style="fill:#FF725E"></path><g style="opacity:0.30000000000000004"><path d="M263.59,209.48c-.5-.28-.35-1.1.11-1.44a3.6,3.6,0,0,1,1.63-.48,1.63,1.63,0,0,0,1.36-.91,3,3,0,0,0-.13-1.36c-.08-.46.07-1,.53-1.14s.91.63,1.46.81.9-.12,1.35-.23a4.54,4.54,0,0,1,3,.71,17.29,17.29,0,0,1,4.44,2.88,5.72,5.72,0,0,1,1.83,4.77,10.41,10.41,0,0,0-15-3.85"></path></g><path d="M266.94,207.85s-4.61,1.88-5.66,4-14.44,34.33-15.07,37.89-8.17,10.47-8,14.66.42,24.7,18,38.94c0,0,11.72,18.84,17.59,19.68S286,317.35,286,317.35s13.61,5,18.84,4.6,22.82-13.19,24.71-17.16,0-12.78,0-12.78,9,4.19,6.7.42S326.19,282,326.19,282s11.3,3.14,8.16-.42a51,51,0,0,0-8.58-7.12s5-1.89,4-10.05c0,0,14.44-16.33,5.65-19.89,0,0,3.56-8.79.21-10.68,0,0,4.19-7.95-.63-10.89s-6.7,1.89-13.4,8.38l-2.3,1.67a19.28,19.28,0,0,0-6.7,2.93c-2.72,2.1-9.42,7.75-9.42,7.75S291,247,286.83,245.54,277,233.18,277,233.18s4-15.91,2.3-20.1S271.58,205.1,266.94,207.85Z" style="fill:#fafafa"></path><path d="M266.94,207.85l.52-.28a3.7,3.7,0,0,1,.68-.3,5.3,5.3,0,0,1,1-.27,8.75,8.75,0,0,1,6.55,1.65,10.58,10.58,0,0,1,3.38,3.74c.9,1.7.77,3.84.64,6a102.38,102.38,0,0,1-2.58,14.83l0-.1a66.33,66.33,0,0,0,3.73,6.14,31.46,31.46,0,0,0,2.32,3.05,12.72,12.72,0,0,0,2.9,2.67,7.45,7.45,0,0,0,3.95.75,33.09,33.09,0,0,0,4.27-.4,80.51,80.51,0,0,0,8.83-1.86l-.08,0,7.36-6.06,1.9-1.57a13.06,13.06,0,0,1,2.13-1.36,20.94,20.94,0,0,1,4.81-1.75l-.08,0,2.31-1.67,0,0c1.64-1.58,3.19-3.3,4.77-5.05a32.09,32.09,0,0,1,2.52-2.57,5.71,5.71,0,0,1,3.3-1.68,5.48,5.48,0,0,1,3.56,1.24,5,5,0,0,1,1.86,3.33,10.42,10.42,0,0,1-.28,3.85,18,18,0,0,1-1.34,3.65l-.1-.31a3.23,3.23,0,0,1,1.47,2.41,10.3,10.3,0,0,1,0,2.88,26.61,26.61,0,0,1-1.54,5.68l-.13-.31a4.49,4.49,0,0,1,3,4.68,14.61,14.61,0,0,1-1.71,5.64,50.85,50.85,0,0,1-6.83,10l.06-.19a13.48,13.48,0,0,1-.35,5.69,7.37,7.37,0,0,1-3.78,4.63l.05-.45a50.1,50.1,0,0,1,8.2,6.68A6.19,6.19,0,0,1,335,282a1,1,0,0,1,.09.88,1.07,1.07,0,0,1-.71.51,8.38,8.38,0,0,1-2.83,0,44.45,44.45,0,0,1-5.43-1.15l.24-.44a91.32,91.32,0,0,1,8.22,8,21.1,21.1,0,0,1,1.8,2.37,3.57,3.57,0,0,1,.37.7,1.14,1.14,0,0,1,0,.93,1,1,0,0,1-.85.45,4.21,4.21,0,0,1-.8,0,25.13,25.13,0,0,1-5.7-2l.36-.29.14.73a37,37,0,0,1,.67,8.12,11.41,11.41,0,0,1-.8,4c-.16.31-.36.6-.54.9s-.44.52-.65.79c-.43.53-.93,1-1.4,1.46a68.36,68.36,0,0,1-6.1,5.1c-2.11,1.58-4.26,3.09-6.45,4.49a52.5,52.5,0,0,1-6.81,3.74A19.06,19.06,0,0,1,306,322l-1,.19a6.44,6.44,0,0,1-1,.05,22,22,0,0,1-3.82-.45,72.85,72.85,0,0,1-7.3-1.85c-2.39-.73-4.73-1.5-7-2.34l.27-.06a25.52,25.52,0,0,1-4.22,3.36,16.15,16.15,0,0,1-4.87,2.17,8.76,8.76,0,0,1-2.65.23,5,5,0,0,1-2.55-.79,20.55,20.55,0,0,1-4-3.3,75.45,75.45,0,0,1-6.38-7.74q-2.91-4-5.45-8l.05.06a51.82,51.82,0,0,1-8.29-8.69,49.52,49.52,0,0,1-5.59-10,56.74,56.74,0,0,1-4.16-20.68,10.07,10.07,0,0,1,1.79-4.61c.85-1.37,1.79-2.65,2.7-3.9a45.46,45.46,0,0,0,2.56-3.76,7.93,7.93,0,0,0,.87-2c.18-.7.38-1.43.62-2.1,1.91-5.43,3.92-10.32,5.7-14.75,3.59-8.84,6.49-15.77,8.55-20.46a5.13,5.13,0,0,1,.93-1.56,8.56,8.56,0,0,1,1.2-1,16.52,16.52,0,0,1,2.11-1.28,17.27,17.27,0,0,1,1.83-.83l-.46.22c-.3.14-.76.36-1.34.67a19.75,19.75,0,0,0-2.08,1.3,9.94,9.94,0,0,0-1.17,1,5,5,0,0,0-.89,1.54c-2,4.7-4.88,11.64-8.44,20.5-1.75,4.44-3.75,9.33-5.63,14.75a20.73,20.73,0,0,0-.61,2.08,7.79,7.79,0,0,1-.9,2.07,43.72,43.72,0,0,1-2.57,3.8c-.91,1.26-1.84,2.53-2.67,3.89a9.66,9.66,0,0,0-1.73,4.42,56.38,56.38,0,0,0,4.18,20.52,48.83,48.83,0,0,0,5.55,9.9,51.21,51.21,0,0,0,8.22,8.59l0,0,0,0q2.54,4,5.45,8a73.67,73.67,0,0,0,6.35,7.68,20.62,20.62,0,0,0,3.87,3.23,4.66,4.66,0,0,0,2.34.72,8.55,8.55,0,0,0,2.51-.23,15.7,15.7,0,0,0,4.72-2.1,25.49,25.49,0,0,0,4.12-3.3l.12-.11.15.05c2.29.83,4.63,1.61,7,2.32a68.26,68.26,0,0,0,7.26,1.84,20.42,20.42,0,0,0,3.72.44,5.56,5.56,0,0,0,.92,0l.9-.17a16.4,16.4,0,0,0,1.77-.66,51,51,0,0,0,6.73-3.71c2.18-1.39,4.32-2.89,6.41-4.46a68,68,0,0,0,6.06-5.06c.45-.48.95-.93,1.36-1.43.21-.25.43-.5.63-.76s.35-.52.49-.81a11.05,11.05,0,0,0,.75-3.82,36.55,36.55,0,0,0-.66-8l-.14-.72-.09-.49.46.2a24.93,24.93,0,0,0,5.56,1.92c.43.08,1,.06,1.11-.14s-.13-.73-.38-1.1a21.66,21.66,0,0,0-1.76-2.31,91.52,91.52,0,0,0-8.16-8l-.83-.73,1.07.29a45.63,45.63,0,0,0,5.36,1.13,8,8,0,0,0,2.62,0c.91-.13.07-1-.51-1.64a50.29,50.29,0,0,0-8.1-6.61l-.38-.25.43-.2a6.84,6.84,0,0,0,3.47-4.3,12.94,12.94,0,0,0,.35-5.48l0-.11.08-.09a50.9,50.9,0,0,0,6.76-9.83,14.12,14.12,0,0,0,1.66-5.44,4.43,4.43,0,0,0-.61-2.6,4.48,4.48,0,0,0-2.06-1.63l-.22-.09.09-.22a26.77,26.77,0,0,0,1.51-5.57,9.27,9.27,0,0,0,0-2.73,2.77,2.77,0,0,0-1.23-2.09l-.19-.1.1-.21a13.3,13.3,0,0,0,1.58-7.21,4.57,4.57,0,0,0-1.68-3,5,5,0,0,0-3.24-1.15,5.29,5.29,0,0,0-3.05,1.56,34.81,34.81,0,0,0-2.48,2.53c-1.59,1.75-3.15,3.48-4.8,5.06h0l-2.31,1.67,0,0h-.05a20.5,20.5,0,0,0-4.71,1.7,21.7,21.7,0,0,0-4,2.88l-7.35,6,0,0h0a78.58,78.58,0,0,1-8.88,1.86,35.37,35.37,0,0,1-4.32.39,16.64,16.64,0,0,1-2.12-.13,9.69,9.69,0,0,1-1-.23,10.52,10.52,0,0,1-1-.45,13.48,13.48,0,0,1-3-2.74,36.24,36.24,0,0,1-2.33-3.09,65.45,65.45,0,0,1-3.72-6.19l0-.05,0,0a102.76,102.76,0,0,0,2.64-14.77c.14-2.15.28-4.27-.59-5.91a10.39,10.39,0,0,0-3.3-3.69,8.67,8.67,0,0,0-6.45-1.7A8.84,8.84,0,0,0,266.94,207.85Z" style="fill:#263238"></path><path d="M258.59,277.86a4.4,4.4,0,0,1-.51-.35c-.33-.24-.77-.61-1.3-1.09a18.46,18.46,0,0,1-5.39-9.63,14.94,14.94,0,0,1-.26-1.67,4.77,4.77,0,0,1,0-.62,2.52,2.52,0,0,1,.11.61c.06.39.16,1,.32,1.65a19.66,19.66,0,0,0,5.35,9.55c.51.5.94.88,1.25,1.13A4.09,4.09,0,0,1,258.59,277.86Z" style="fill:#263238"></path><path d="M262.32,281.22a1.88,1.88,0,0,1-.42,0c-.27,0-.66-.11-1.14-.23a16.21,16.21,0,0,1-3.59-1.33,17.16,17.16,0,0,1-3.2-2.12c-.37-.32-.66-.59-.85-.79a1.82,1.82,0,0,1-.28-.32s.46.39,1.23,1a18.86,18.86,0,0,0,3.19,2.05,19.86,19.86,0,0,0,3.54,1.38C261.73,281.08,262.33,281.18,262.32,281.22Z" style="fill:#263238"></path><path d="M269.86,286s-.12,0-.32,0-.5,0-.87,0a11.6,11.6,0,0,1-2.81-.52,11.3,11.3,0,0,1-2.59-1.2,7.3,7.3,0,0,1-.71-.49c-.17-.13-.25-.21-.24-.22s.39.23,1,.58a14.18,14.18,0,0,0,2.59,1.13,14.88,14.88,0,0,0,2.76.58C269.41,286,269.86,286,269.86,286Z" style="fill:#263238"></path><path d="M288.56,262.85s.34-.69.73-1.87a13.46,13.46,0,0,0,.67-4.74,13.66,13.66,0,0,0-1-4.69c-.48-1.14-.91-1.78-.87-1.8a2.88,2.88,0,0,1,.31.44,10.75,10.75,0,0,1,.7,1.3,13,13,0,0,1,1.1,4.74,12.74,12.74,0,0,1-.74,4.8,8.93,8.93,0,0,1-.59,1.35A2.89,2.89,0,0,1,288.56,262.85Z" style="fill:#263238"></path><path d="M294.41,257a7.52,7.52,0,0,1-.47-1,23.76,23.76,0,0,0-1.25-2.37,22.59,22.59,0,0,0-1.52-2.21,8.35,8.35,0,0,1-.68-.89,5.06,5.06,0,0,1,.79.8,15.49,15.49,0,0,1,1.59,2.19,16.19,16.19,0,0,1,1.2,2.42A5.22,5.22,0,0,1,294.41,257Z" style="fill:#263238"></path><path d="M316.8,260.84s-.07,0-.17-.18l-.46-.54c-.39-.47-1-1.13-1.74-1.92a32.6,32.6,0,0,0-14.51-8.67c-1.06-.3-1.92-.5-2.52-.62l-.69-.14a1,1,0,0,1-.24-.07,24.35,24.35,0,0,1,3.49.69,31.17,31.17,0,0,1,14.58,8.71A24.91,24.91,0,0,1,316.8,260.84Z" style="fill:#263238"></path><path d="M323.6,237a7.38,7.38,0,0,1-1.08-.46,10,10,0,0,0-2.68-.87,4.69,4.69,0,0,0-2.73.37,6.32,6.32,0,0,0-1,.66s.05-.11.19-.26a3,3,0,0,1,.7-.53,4.57,4.57,0,0,1,2.83-.45,8.85,8.85,0,0,1,2.71.94A5.72,5.72,0,0,1,323.6,237Z" style="fill:#263238"></path><path d="M327.26,245.48a10.22,10.22,0,0,0,.09-1.7,5.72,5.72,0,0,0-5.19-5.42,11.16,11.16,0,0,0-1.7,0,1.69,1.69,0,0,1,.45-.11,4.75,4.75,0,0,1,1.27-.06,5.69,5.69,0,0,1,5.32,5.55,4.71,4.71,0,0,1-.11,1.26A1.77,1.77,0,0,1,327.26,245.48Z" style="fill:#263238"></path><path d="M327.75,248.4a1.82,1.82,0,0,1,.13.5,7.8,7.8,0,0,1,.12,1.4,8.13,8.13,0,0,1-4.89,7.39,7,7,0,0,1-1.34.44,2.34,2.34,0,0,1-.51.08,14.94,14.94,0,0,0,1.79-.65,8.29,8.29,0,0,0,4.8-7.26A15.28,15.28,0,0,0,327.75,248.4Z" style="fill:#263238"></path><path d="M327.39,245.82a.82.82,0,0,1,.07.29,3.8,3.8,0,0,1,.06.84,5.65,5.65,0,0,1-2.69,4.59,3.89,3.89,0,0,1-.75.37,1.19,1.19,0,0,1-.3.08s.4-.19,1-.57a6,6,0,0,0,2.62-4.48C327.42,246.25,327.35,245.82,327.39,245.82Z" style="fill:#263238"></path><path d="M335.54,230.29a3.79,3.79,0,0,1-.3.49l-.9,1.27A26.41,26.41,0,0,1,331,236a13.14,13.14,0,0,1-4.35,2.75,8.42,8.42,0,0,1-1.52.41,2,2,0,0,1-.57.06,17.93,17.93,0,0,0,2-.61,13.91,13.91,0,0,0,4.26-2.76,30.84,30.84,0,0,0,3.4-3.84l.95-1.23A3.42,3.42,0,0,1,335.54,230.29Z" style="fill:#263238"></path><path d="M332.23,226.09s0,.16-.16.44-.31.68-.57,1.16a18.28,18.28,0,0,1-2.5,3.47,17.91,17.91,0,0,1-3.24,2.77c-.46.3-.84.52-1.11.66a2,2,0,0,1-.43.21s.57-.37,1.46-1a20.21,20.21,0,0,0,3.17-2.79,19.93,19.93,0,0,0,2.52-3.39C331.92,226.69,332.2,226.07,332.23,226.09Z" style="fill:#263238"></path><path d="M335.67,244s-.08.09-.26.23-.43.31-.77.52a12.66,12.66,0,0,1-5.82,1.79,7.06,7.06,0,0,1-.93,0,1.18,1.18,0,0,1-.34,0s.48,0,1.26-.11a14.87,14.87,0,0,0,5.76-1.77C335.25,244.24,335.65,244,335.67,244Z" style="fill:#263238"></path><path d="M333.71,256a1.28,1.28,0,0,1-.31.2c-.2.11-.51.27-.9.44a14.75,14.75,0,0,1-6.46,1.25c-.42,0-.76,0-1-.07l-.36-.07a12.12,12.12,0,0,1,1.36,0,18,18,0,0,0,3.26-.33,18.62,18.62,0,0,0,3.15-.91C333.23,256.24,333.7,256,333.71,256Z" style="fill:#263238"></path><path d="M270.91,308.05a2.71,2.71,0,0,1-.64,0,13.76,13.76,0,0,1-1.73-.1,18.45,18.45,0,0,1-5.52-1.55,18.2,18.2,0,0,1-4.78-3.16A12.33,12.33,0,0,1,257,302a3.38,3.38,0,0,1-.4-.5,4.1,4.1,0,0,1,.46.45c.28.29.71.7,1.25,1.18a19.77,19.77,0,0,0,4.77,3.08,19.57,19.57,0,0,0,5.46,1.59c.72.1,1.31.15,1.72.17A4.77,4.77,0,0,1,270.91,308.05Z" style="fill:#263238"></path><path d="M280.26,312.36a2.11,2.11,0,0,1-.57-.11,12.52,12.52,0,0,1-1.5-.46,16.39,16.39,0,0,1-8-6.38,13.35,13.35,0,0,1-.78-1.36,3.74,3.74,0,0,1-.23-.52,2.75,2.75,0,0,1,.31.48,13.84,13.84,0,0,0,.83,1.32,17.34,17.34,0,0,0,7.9,6.32,14.52,14.52,0,0,0,1.46.52A3.78,3.78,0,0,1,280.26,312.36Z" style="fill:#263238"></path><path d="M296.82,315.7a3.55,3.55,0,0,1-.66.08c-.42,0-1,.05-1.8,0a22.61,22.61,0,0,1-5.85-1,22.14,22.14,0,0,1-5.38-2.49,16.38,16.38,0,0,1-1.47-1,4.85,4.85,0,0,1-.51-.42,4.34,4.34,0,0,1,.56.36c.34.25.85.58,1.5,1a23.74,23.74,0,0,0,11.16,3.43c.75,0,1.37,0,1.79,0Z" style="fill:#263238"></path><path d="M283.8,224.21a4.92,4.92,0,0,0-.51-1.62c-.25-.47-.32-.88-1.15-1l-6.49-1.18c-.84,1.81-2.88,6.72-3.58,8.43s-2,3.73-1.94,5.58,1.21,3.83,3,4.13a4.08,4.08,0,0,0,4-2.27,11.93,11.93,0,0,0,1.13-4.69c1,.72,2.17,1.49,3.38,1.23a2.91,2.91,0,0,0,1.95-1.7,6.82,6.82,0,0,0,.5-2.62A21.6,21.6,0,0,0,283.8,224.21Z" style="fill:#FF725E"></path><path d="M270.28,214.79a1.57,1.57,0,1,1-1.57-1.57A1.56,1.56,0,0,1,270.28,214.79Z" style="fill:#263238"></path><path d="M263.05,229.74s-.05.17-.23.43a3.66,3.66,0,0,1-.93.94,2.12,2.12,0,0,1-.84.4.89.89,0,0,1-.55-.07.78.78,0,0,1-.36-.47,4.16,4.16,0,0,1,.19-2.4h0c.37.19.1.06.18.1h0l0,0,0,0,0,.07-.09.13-.2.25a4.57,4.57,0,0,1-.43.45,2.26,2.26,0,0,1-1,.62.63.63,0,0,1-.58-.15.85.85,0,0,1-.23-.5,3.54,3.54,0,0,1,0-.92,4.53,4.53,0,0,1,.34-1.28,1.57,1.57,0,0,1,.25-.42,6.08,6.08,0,0,0-.45,1.71,3.76,3.76,0,0,0,0,.88.5.5,0,0,0,.61.49,2,2,0,0,0,.9-.58A4.17,4.17,0,0,0,260,229l.19-.24.09-.13,0-.06,0,0h0l.18.09h0a4.2,4.2,0,0,0-.2,2.27.58.58,0,0,0,.7.43,2.1,2.1,0,0,0,.79-.35A4.92,4.92,0,0,0,263.05,229.74Z" style="fill:#263238"></path><path d="M273.44,235.28a2.49,2.49,0,0,1,.07-.58,8.19,8.19,0,0,1,.59-1.46,4.74,4.74,0,0,0,.65-2.16,9,9,0,0,0-.26-1.34,2.07,2.07,0,0,1,.24-1.49,12.84,12.84,0,0,1,.88-1.2,7.15,7.15,0,0,0,.73-1.15,8.65,8.65,0,0,0,.76-2.16,13.59,13.59,0,0,0,.2-2.12,4.45,4.45,0,0,1,.06.57,8.25,8.25,0,0,1-.11,1.58,8.61,8.61,0,0,1-.74,2.22,7.39,7.39,0,0,1-.73,1.18,14.34,14.34,0,0,0-.87,1.18,1.87,1.87,0,0,0-.22,1.36,7.93,7.93,0,0,1,.25,1.36,4.78,4.78,0,0,1-.71,2.24,10.07,10.07,0,0,0-.64,1.41C273.48,235.07,273.46,235.28,273.44,235.28Z" style="fill:#263238"></path><path d="M280.17,230.66a1.52,1.52,0,0,1-.08-.36,2.86,2.86,0,0,1,.08-1c.09-.42.25-.89.39-1.42a3,3,0,0,0,0-1.72c-.21-.58-.58-1.1-.72-1.66a3.69,3.69,0,0,1-.06-1.5,3.42,3.42,0,0,1,.33-.95,1.14,1.14,0,0,1,.21-.3A5.31,5.31,0,0,0,280,223a3.55,3.55,0,0,0,.1,1.42c.13.52.5,1,.72,1.64a3,3,0,0,1,0,1.84c-.15.54-.32,1-.43,1.4A5,5,0,0,0,280.17,230.66Z" style="fill:#263238"></path><g style="opacity:0.30000000000000004"><path d="M273.27,235a2.4,2.4,0,0,1,.55-1.71,4.42,4.42,0,0,0,.86-1.61c.18-1-.43-1.95-.21-2.9a4.55,4.55,0,0,1,1.14-1.7,7,7,0,0,0,1.58-5.1,1.29,1.29,0,0,1,0-.48.35.35,0,0,1,.38-.24c.18,0,.24.27.27.46a17,17,0,0,1,.31,3.09,5.9,5.9,0,0,1-.8,3,13.55,13.55,0,0,0-1.13,1.7c-.52,1.22-.09,2.79-.9,3.85-.54.69-1.5,1-2,1.71"></path></g><g style="opacity:0.30000000000000004"><path d="M280.46,221.27a6.45,6.45,0,0,0-.75,1.62,2.48,2.48,0,0,0,.13,1.74c.23.46.65.81.86,1.29a3.32,3.32,0,0,1-.25,2.38,3,3,0,0,0-.15,2.38c.81-1.57,1.64-3.27,1.42-5-.13-1.13-.7-2.23-.49-3.35a3.51,3.51,0,0,0,.13-.72.66.66,0,0,0-.35-.6c-.23-.09-.54.12-.48.36"></path></g><path d="M276.05,221.75a19.38,19.38,0,0,1,7.54.5,8.78,8.78,0,0,0-.76-3.48,4.24,4.24,0,0,0-2.59-2.3,4.57,4.57,0,0,0-4.19,1.34,2.52,2.52,0,0,0-.84,1.34,2.69,2.69,0,0,0,.84,2.6" style="fill:#eb996e"></path><path d="M279.13,217.39c0,.06-.32.07-.69,0s-.66-.14-.66-.2a1.31,1.31,0,0,1,.69,0A1.33,1.33,0,0,1,279.13,217.39Z" style="fill:#263238"></path><path d="M278.64,276.13a51.81,51.81,0,0,0,14.05,12.42c4.75,2.85,10.16,5,15.69,4.65s11.12-3.47,13.12-8.64a4.35,4.35,0,0,0,.36-2.35,2,2,0,0,0-1.54-1.64,3.31,3.31,0,0,0-2,.68,25.18,25.18,0,0,1-34.58-8.76,4.71,4.71,0,0,1,.61,2.46,1.62,1.62,0,0,1-1.75,1.49,2.36,2.36,0,0,1-1.13-.86l-5-5.69c.19,2.82,0,4.05,2.34,6.5" style="fill:#e0e0e0"></path><path d="M320.86,271a2.24,2.24,0,0,1,.14.2,2.35,2.35,0,0,1,.28.66,3.53,3.53,0,0,1-.43,2.65,5,5,0,0,1-1.29,1.45,5.07,5.07,0,0,1-2.11.87,14,14,0,0,1-5.42-.39l.06-.17,6.64,3.24.13.07-.1.1a19.38,19.38,0,0,1-13.2,5.55,18.94,18.94,0,0,1-7.9-1.6,19.24,19.24,0,0,1-4.63-2.86,13.81,13.81,0,0,1-1.45-1.38s.14.11.38.34.62.56,1.12,1a19.8,19.8,0,0,0,4.64,2.79,19,19,0,0,0,7.83,1.55,19.38,19.38,0,0,0,9.37-2.67,19.83,19.83,0,0,0,3.7-2.84l0,.17L312,276.43l-.67-.33.73.16a14.26,14.26,0,0,0,5.36.43,4.66,4.66,0,0,0,3.33-2.24,3.49,3.49,0,0,0,.48-2.57A4,4,0,0,0,320.86,271Z" style="fill:#263238"></path><path d="M256.67,301.61c4.13,5.06,8.48,10.3,14.44,13a5.51,5.51,0,0,0,3.29.63,2.3,2.3,0,0,0,2-2.38,38.63,38.63,0,0,0,18.32,3.45c-5-.93-9-1.64-13.52-3.95-2.75.31-7.48-2.62-9.8-5.22-2.76,2.46-12-2.35-14.68-5.53" style="fill:#e0e0e0"></path><path d="M331,282.69l79.83-23.84-.07-43.19s9.07-11.43,19.43-11.27,18.15,10.11,18.15,10.11l-2,43.68c-.61,13.19-4.12,30.63-20.66,33.49L337.3,306.31Z" style="fill:#b78876"></path><path d="M449.66,180.86c-4-15.49-27.16-21.84-37.12-9.31-3.91,4.91-6.06,15.95-6.07,21C406.46,205.22,408,224,408,224l36.49,2.82a7.72,7.72,0,0,0,8.32-7.6C453,209.23,452.63,192.27,449.66,180.86Z" style="fill:#455a64"></path><path d="M446.81,182.16a3.52,3.52,0,0,1,.38.84c.23.56.57,1.39.91,2.49a63.44,63.44,0,0,1,2.23,9.46c.69,4.05,1.14,8.92,1.68,14.31.27,2.69.58,5.51,1,8.42.18,1.47.51,2.87.81,4.4a9.47,9.47,0,0,1,.18,2.4,3,3,0,0,1-1.19,2.3,4.49,4.49,0,0,1-2.47.54c-.79,0-1.57,0-2.33-.08-1.54-.09-3-.27-4.48-.34l-8.48-.54-14.36-1-9.68-.73-2.63-.24a3.52,3.52,0,0,1-.91-.14,5,5,0,0,1,.92,0l2.64.08,9.69.47,14.37.79,8.49.5c1.47.06,3,.24,4.48.33.75,0,1.51.08,2.26.07a3.89,3.89,0,0,0,2-.39c1.09-.75.93-2.48.68-3.88s-.63-3-.8-4.44c-.42-2.92-.71-5.76-1-8.46-.5-5.39-.89-10.25-1.51-14.29a72.33,72.33,0,0,0-2-9.46C447.18,183.38,446.73,182.19,446.81,182.16Z" style="fill:#263238"></path><path d="M425.48,271.15c-.22.15-2.38-3.87-6.61-7.37s-8.52-5-8.41-5.22a7.66,7.66,0,0,1,2.84.84,24.47,24.47,0,0,1,10.85,9.1A7.82,7.82,0,0,1,425.48,271.15Z" style="fill:#995037"></path><path d="M334.84,281.53l14-4.18,11.83,25.09-18.13,3s-20.86,8.44-38.2,8c-3.31-.85-7.83-7.7-8.1-8-3.28-.72-5.46-5.32-5.88-7.35-3.42-2.18-4.94-4.81-2.06-6.25-2.69-1.77-.42-5.64,2.41-5.08,6.1,2.33,11.72,4.42,11.91,4,1.39-1,19-1.55,13.39-9.48-3.29-.55-14.71-.65-12.36-7.13,9,.56,21.68-1.56,31.14,7.38" style="fill:#b78876"></path><path d="M334.84,281.53l14-4.18,12.68,26.89-17.45,3.32s-22.39,6.32-39.73,5.86c-3.31-.85-7.83-7.7-8.1-8-3.28-.72-5.46-5.32-5.88-7.35-3.42-2.18-4.94-4.81-2.06-6.25-2.69-1.77-.42-5.64,2.41-5.08,6.1,2.33,11.72,4.42,11.91,4,1.39-1,19-1.55,13.39-9.48-3.29-.55-14.71-.65-12.36-7.13,9,.56,21.68-1.56,31.14,7.38" style="fill:none"></path><path d="M314.55,296.47s-.32.24-1,.55a16.06,16.06,0,0,1-2.89,1,23.77,23.77,0,0,1-19.4-3.49,16.78,16.78,0,0,1-2.35-2c-.51-.52-.76-.82-.72-.86s1.25,1,3.39,2.34a25.91,25.91,0,0,0,18.94,3.41C313,297,314.5,296.33,314.55,296.47Z" style="fill:#995037"></path><path d="M314.37,303.4a9.82,9.82,0,0,1-3.62,1.26,21.83,21.83,0,0,1-17.6-4.24,10.15,10.15,0,0,1-2.65-2.76c.1-.1,1.11,1,3,2.3a24,24,0,0,0,17.15,4.12C313,303.75,314.32,303.27,314.37,303.4Z" style="fill:#995037"></path><path d="M317.65,308a11.73,11.73,0,0,1-3.15,1,27.67,27.67,0,0,1-8,.9,17,17,0,0,1-7.68-2.36,7,7,0,0,1-2.59-2.08c.08-.1,1.05.7,2.86,1.57a18.94,18.94,0,0,0,7.46,2.05,35.88,35.88,0,0,0,7.8-.65A15.26,15.26,0,0,1,317.65,308Z" style="fill:#995037"></path><path d="M410.81,258.85a4.47,4.47,0,0,1-.76.29l-2.2.71-8.11,2.54-26.83,8.15c-10.49,3.15-20,6-26.89,8-3.45,1-6.24,1.79-8.18,2.32a19.09,19.09,0,0,1-3,.72l11.11-3.39L372.76,270l26.87-8,8.16-2.37L410,259A5.86,5.86,0,0,1,410.81,258.85Z" style="fill:#995037"></path><path d="M422.7,292.16a1.26,1.26,0,0,1-.29.08l-.86.16-3.31.6L406,295.11l-40.33,6.76-20.81,3.43h0a52.13,52.13,0,0,0-7.22,2.69c-1.14.5-2.19,1.06-3.32,1.5a31.77,31.77,0,0,1-3.32,1,114,114,0,0,1-11.48,1.92c-3.23.39-5.79.62-7.55.77l-2,.14-.52,0h-.18l.18,0,.51-.07,2-.22c1.75-.19,4.31-.48,7.52-.91a115,115,0,0,0,11.42-2,29.62,29.62,0,0,0,3.27-1c1.07-.42,2.15-1,3.28-1.51a51.3,51.3,0,0,1,7.29-2.75h0l20.81-3.46L406,294.75l12.24-1.95,3.34-.5.87-.12A1.27,1.27,0,0,1,422.7,292.16Z" style="fill:#995037"></path></g></svg>